<?xml version="1.0" encoding="UTF-8"?>
<svg id="Layer_1" data-name="Layer 1" xmlns="http://www.w3.org/2000/svg" viewBox="0 0 214.71 30">
  <defs>
    <style>
      .cls-1 {
        fill: #005eb8;
      }
    </style>
  </defs>
  <path class="cls-1" d="M69.97.67h-3.92c-.33,0-.55.22-.55.55v27.56c0,.33.22.55.55.55h3.92c.33,0,.55-.22.55-.55V1.22c0-.28-.22-.55-.55-.55Z"/>
  <path class="cls-1" d="M119.91.67h-3.92c-.33,0-.55.22-.55.55v27.56c0,.33.22.55.55.55h3.92c.33,0,.55-.22.55-.55V1.22c0-.28-.22-.55-.55-.55Z"/>
  <path class="cls-1" d="M214.24.73h-3.98c-.28,0-.55.22-.55.55v17.95c0,.33-.44.5-.72.22l-12.26-18.23c-.22-.28-.55-.5-.88-.5h-4.97c-.28,0-.55.28-.55.5v27.62c0,.28.28.55.55.55h3.92c.39,0,.55-.28.55-.55V9.62c0-.39.5-.55.72-.22l13.2,19.61c.17.28.5.44.77.44h4.03c.33,0,.61-.17.61-.61V1.28c.11-.28-.17-.55-.44-.55Z"/>
  <path class="cls-1" d="M149.57,24.31h-14.14c-.28,0-.55-.22-.55-.55V1.22c0-.28-.22-.55-.55-.55h-3.98c-.28,0-.55.22-.55.55v27.56c0,.28.22.55.55.55h19.17c.28,0,.55-.22.55-.55v-3.98c.06-.22-.17-.5-.5-.5Z"/>
  <path class="cls-1" d="M21.09,28.67l-1.49-3.2c-.11-.22-.33-.39-.55-.39h-8.17c-.22,0-.44.17-.55.39l-1.49,3.2c-.11.28.06.72.44.72h11.43c.33,0,.55-.39.39-.72Z"/>
  <path class="cls-1" d="M16.9,1.22c-.17-.33-.5-.55-.83-.55h-2.21c-.39,0-.72.22-.83.55L.05,28.67c-.17.33.11.72.44.72h4.42c.22,0,.44-.17.55-.33L14.52,9.62c.17-.33.61-.33.77,0l9.11,19.39c.11.22.33.33.55.33h4.42c.39,0,.61-.39.44-.72L16.9,1.22Z"/>
  <path class="cls-1" d="M45.67,28.84c-.17.33-.5.55-.83.55h-2.21c-.39,0-.72-.22-.83-.55L28.83,1.39c-.17-.33.11-.72.44-.72h4.42c.22,0,.44.17.55.33l9.06,19.39c.17.33.61.33.77,0L53.18,1.06c.11-.22.33-.33.55-.33h4.42c.39,0,.61.39.44.72l-12.92,27.4Z"/>
  <path class="cls-1" d="M168.29.06c-8.28,0-14.97,6.74-14.97,14.97s6.74,14.97,14.97,14.97,14.97-6.74,14.97-14.97S176.57.06,168.29.06ZM168.29,24.97c-5.47,0-9.94-4.47-9.94-9.94s4.47-9.94,9.94-9.94,9.94,4.47,9.94,9.94c.06,5.52-4.42,9.94-9.94,9.94Z"/>
  <path class="cls-1" d="M107.81,13.87c0-.33-.28-.55-.61-.55h-11.38c-.33,0-.55.28-.55.55v3.26c0,.33.28.55.55.55h5.74c.66,0,.77.39.61.88-1.49,3.92-5.41,6.68-9.94,6.35-4.75-.33-8.67-4.03-9.22-8.78-.66-6.02,4.03-11.1,9.89-11.1,2.65,0,5.03.99,6.79,2.71.22.22.5.33.83.33h4.92c.33,0,.55-.39.39-.66-2.82-4.81-8.28-7.9-14.42-7.35-6.96.66-12.65,6.24-13.42,13.2-.99,9.06,6.08,16.74,14.91,16.74,8.06,0,14.64-6.35,14.97-14.31v-.72c0-.33,0-.72-.06-1.1Z"/>
</svg>