<?xml version="1.0" encoding="UTF-8"?>
<svg id="Layer_1" data-name="Layer 1" xmlns="http://www.w3.org/2000/svg" viewBox="0 0 159.67 46">
  <defs>
    <style>
      .cls-1 {
        fill: #0089d6;
      }
    </style>
  </defs>
  <g id="layer1">
    <g id="layer1-1">
      <path id="path21" class="cls-1" d="M27.47,43.54c7.63-1.35,13.93-2.46,14-2.48l.13-.03-7.2-8.57c-3.96-4.71-7.2-8.59-7.2-8.61,0-.04,7.44-20.53,7.48-20.6.01-.02,5.08,8.71,12.27,21.18,6.74,11.67,12.29,21.3,12.34,21.39l.09.16h-22.89s-22.89,0-22.89,0c0,0,13.87-2.45,13.87-2.45ZM115.27,41.47c-3.48-.22-5.51-2.21-6.05-5.92-.14-.99-.14-1.01-.16-7.43v-6.21s1.53,0,1.53,0h1.54v6c.02,5.41.03,6.05.08,6.43.21,1.55.63,2.58,1.34,3.33.57.6,1.24.95,2.16,1.13.44.09,1.67.09,2.07,0,.94-.21,1.69-.61,2.35-1.27.75-.75,1.31-1.82,1.58-3.03l.09-.41v-6.06s.02-6.06.02-6.06h3.15v19.04h-3.12v-1.51c0-1.03-.01-1.51-.04-1.5-.02,0-.1.13-.18.27-.54.98-1.43,1.88-2.41,2.41-1.18.65-2.35.88-3.96.77h0ZM150.64,41.46c-1.23-.09-2.53-.52-3.58-1.17-2.23-1.38-3.55-3.66-3.94-6.79-.13-1.08-.15-2.54-.04-3.46.25-2.06,1.06-4.08,2.21-5.52.3-.37.96-1.04,1.33-1.33,1-.8,2.17-1.35,3.4-1.63.72-.16,1.99-.23,2.76-.16,1.93.18,3.69,1.09,4.89,2.51,1.22,1.45,1.89,3.48,1.98,5.98.01.39.02,1.08,0,1.52l-.02.81h-6.75s-6.75.02-6.75.02v.3c0,.92.22,1.96.61,2.85.33.77.9,1.6,1.37,2.01.96.83,2.14,1.33,3.42,1.45.48.04,1.69,0,2.24-.09,1.55-.24,3.02-.85,4.22-1.74.14-.11.27-.2.3-.22.03-.02.04.25.04,1.41v1.43s-.32.2-.32.2c-1.35.83-2.89,1.37-4.52,1.57-.49.06-2.28.09-2.86.04h0ZM156.51,29.37c0-1.54-.65-3.24-1.56-4.12-.65-.63-1.44-1.01-2.38-1.16-.44-.07-1.38-.04-1.85.05-.99.2-1.81.64-2.52,1.34-.75.74-1.32,1.65-1.67,2.67-.13.37-.28.98-.32,1.31l-.02.16h10.34v-.27ZM64.95,40.98s2.3-6.04,5.09-13.38l5.08-13.34h1.63s1.63,0,1.63,0l.14.35c.41,1.06,10.17,26.39,10.17,26.4,0,0-.78.02-1.74.02h-1.74s-1.41-3.74-1.41-3.74l-1.41-3.74h-5.66s-5.66,0-5.66,0l-.05.13c-.03.07-.63,1.75-1.33,3.74l-1.29,3.62h-1.74c-1.38,0-1.74,0-1.73-.04h0ZM81.37,30.68s-.95-2.57-2.1-5.7c-2.16-5.85-2.28-6.21-2.46-7.15-.08-.44-.12-.45-.17-.05-.03.29-.18.93-.3,1.29-.06.18-1.03,2.85-2.16,5.94-1.13,3.09-2.06,5.63-2.06,5.65s2.08.03,4.62.03,4.62,0,4.62-.01ZM89.74,40.53v-.49l5.64-7.75,5.64-7.75-5.11-.02-5.11-.02v-1.3s-.02-1.3-.02-1.3h14.77v.88l-5.64,7.8c-3.1,4.29-5.64,7.8-5.64,7.81s2.51.02,5.57.02h5.57v2.61h-15.69v-.49ZM131.13,41s-.02-4.31-.02-9.55v-9.53h3.08v1.96c0,1.08.01,1.96.03,1.96s.09-.18.17-.39c.35-.99.95-1.92,1.72-2.65.7-.66,1.49-1.06,2.44-1.21.26-.04.49-.05,1.02-.04.66.02,1.01.07,1.41.2l.13.04v3.2l-.36-.18c-.64-.32-1.28-.45-2.04-.41-.5.03-.82.09-1.22.24-.82.31-1.48.85-1.94,1.59-.67,1.07-1.15,2.44-1.29,3.71-.03.23-.04,2.07-.05,5.71v5.38h-1.53c-.84,0-1.53-.01-1.54-.02ZM0,40.93s3.39-5.9,7.54-13.09l7.54-13.07,8.79-7.38C28.71,3.33,32.68,0,32.7,0c.02,0-.05.15-.14.36-.09.2-4.39,9.41-9.55,20.47l-9.37,20.11h-6.82c-3.75.01-6.82,0-6.82,0Z"/>
    </g>
  </g>
</svg>