<?xml version="1.0" encoding="UTF-8"?>
<svg id="Layer_1" data-name="Layer 1" xmlns="http://www.w3.org/2000/svg" viewBox="0 0 159.64 40">
  <defs>
    <style>
      .cls-1 {
        fill: #739dd2;
      }

      .cls-2 {
        fill: #6c6e70;
      }
    </style>
  </defs>
  <rect class="cls-2" x="98.94" y="13.91" width="4.51" height="19.51"/>
  <path class="cls-2" d="M110.48,13.91l9.19,19.51h4.5l9.3-19.51h-4.94l-6.54,14.46-6.58-14.46h-4.94,0Z"/>
  <path class="cls-2" d="M48.03,33.42h4.43v-2.51c.94.98,3.27,3.16,7.74,3.16,5.52,0,10.28-3.92,10.28-10.54,0-5.92-4.03-10.28-10.46-10.28-3.74,0-5.56,1.31-7.48,2.69V7.01h-4.5v26.41ZM52.53,19.8c1.38-1.13,3.23-2.69,6.5-2.69,3.45,0,6.87,2.18,6.87,6.58s-3.23,6.54-6.72,6.54c-3.09,0-4.9-1.49-6.65-2.83v-7.59Z"/>
  <path class="cls-2" d="M148.71,34.08c5.34,0,10.94-2.65,10.94-10.43,0-5.23-3.16-10.39-10.94-10.39s-10.94,5.16-10.94,10.39c0,7.78,5.59,10.43,10.94,10.43ZM148.62,30.35c-4.03,0-6.36-2.51-6.36-6.65,0-4.58,2.91-6.47,6.36-6.47s6.36,1.89,6.36,6.47c0,4.14-2.32,6.65-6.36,6.65Z"/>
  <path class="cls-2" d="M77.71,33.42h4.51v-10.35c.04-1.38.04-5.2,5.78-5.23,1.49,0,2.33.25,2.76.36v-4.87c-.47-.07-.94-.07-1.6-.07-3.89,0-5.85,1.96-6.83,3.56h-.11v-2.91h-4.51v19.51Z"/>
  <path class="cls-1" d="M4.46,20c0,8.57,6.95,15.52,15.52,15.52s15.52-6.95,15.52-15.52-6.95-15.52-15.52-15.52-15.52,6.95-15.52,15.52ZM40,20c0,11.05-8.95,20-20,20S0,31.05,0,20,8.95,0,20,0s20,8.95,20,20Z"/>
  <path class="cls-1" d="M17.24,24.44c0,4.6,3.73,8.33,8.33,8.33s8.33-3.73,8.33-8.33-3.73-8.33-8.33-8.33-8.33,3.73-8.33,8.33ZM38.46,24.44c0,7.12-5.77,12.9-12.9,12.9s-12.9-5.77-12.9-12.9,5.77-12.9,12.9-12.9,12.9,5.77,12.9,12.9Z"/>
</svg>