<?xml version="1.0" encoding="UTF-8"?>
<svg id="Layer_1" data-name="Layer 1" xmlns="http://www.w3.org/2000/svg" viewBox="0 0 227.36 44">
  <defs>
    <style>
      .cls-1 {
        fill: #929497;
      }

      .cls-2 {
        fill: #64b145;
      }
    </style>
  </defs>
  <rect class="cls-1" x="23.67" y="28.97" width="3.68" height="14.37"/>
  <g>
    <path class="cls-1" d="M56.94,33.08c-.16-.07-1.34-.77-3.09-.77-2.38,0-4.02,1.63-4.02,3.83s1.57,3.84,4.02,3.84c1.73,0,2.93-.67,3.09-.76v3.86c-.46.13-1.72.51-3.35.51-4.14,0-7.76-2.81-7.76-7.45,0-4.29,3.28-7.43,7.76-7.43,1.72,0,3,.41,3.35.52v3.85Z"/>
    <path class="cls-1" d="M18.63,33.08c-.15-.07-1.33-.77-3.08-.77-2.38,0-4.02,1.63-4.02,3.83s1.57,3.84,4.02,3.84c1.73,0,2.93-.67,3.08-.76v3.86c-.46.13-1.71.51-3.35.51-4.13,0-7.74-2.81-7.74-7.45,0-4.29,3.28-7.43,7.74-7.43,1.74,0,3,.41,3.35.52v3.85Z"/>
    <path class="cls-1" d="M76.17,36.15c0,4.11-3.21,7.45-7.69,7.45s-7.68-3.33-7.68-7.45,3.2-7.43,7.68-7.43,7.69,3.33,7.69,7.43M68.48,32.37c-2.18,0-3.79,1.69-3.79,3.78s1.61,3.78,3.79,3.78,3.8-1.69,3.8-3.78-1.62-3.78-3.8-3.78"/>
    <path class="cls-1" d="M41.26,32.23c-.05-.02-1.6-.44-2.87-.44-1.47,0-2.27.49-2.27,1.18,0,.87,1.07,1.18,1.68,1.37l1.02.31c2.38.75,3.47,2.36,3.47,4.12,0,3.61-3.22,4.82-6.02,4.82-1.95,0-3.77-.36-3.96-.39v-3.31c.33.08,1.86.54,3.47.54,1.82,0,2.67-.53,2.67-1.35,0-.73-.72-1.14-1.64-1.43-.22-.07-.55-.18-.79-.25-2.04-.64-3.74-1.83-3.74-4.2,0-2.69,2.03-4.49,5.42-4.49,1.79,0,3.47.42,3.57.45v3.07Z"/>
    <path class="cls-1" d="M3.64,13.52c0-.99-.82-1.79-1.82-1.79s-1.82.8-1.82,1.79v3.77c0,1,.82,1.8,1.82,1.8s1.82-.8,1.82-1.8v-3.77Z"/>
    <path class="cls-1" d="M13.65,8.57c0-.99-.82-1.79-1.82-1.79s-1.83.8-1.83,1.79v8.72c0,1,.82,1.8,1.83,1.8s1.82-.8,1.82-1.8v-8.72Z"/>
    <path class="cls-1" d="M23.66,1.8c0-.99-.81-1.8-1.82-1.8s-1.82.8-1.82,1.8v19.08c0,.99.82,1.8,1.82,1.8s1.82-.81,1.82-1.8V1.8Z"/>
    <path class="cls-1" d="M33.67,8.57c0-.99-.82-1.79-1.81-1.79s-1.82.8-1.82,1.79v8.72c0,1,.82,1.8,1.82,1.8s1.81-.8,1.81-1.8v-8.72Z"/>
    <path class="cls-1" d="M43.67,13.52c0-.99-.81-1.79-1.81-1.79s-1.82.8-1.82,1.79v3.77c0,1,.82,1.8,1.82,1.8s1.81-.8,1.81-1.8v-3.77Z"/>
    <path class="cls-1" d="M53.69,8.57c0-.99-.81-1.79-1.82-1.79s-1.81.8-1.81,1.79v8.72c0,1,.81,1.8,1.81,1.8s1.82-.8,1.82-1.8v-8.72Z"/>
    <path class="cls-1" d="M63.7,1.8c0-.99-.81-1.8-1.82-1.8s-1.81.8-1.81,1.8v19.08c0,.99.82,1.8,1.81,1.8s1.82-.81,1.82-1.8V1.8Z"/>
    <path class="cls-1" d="M73.72,8.57c0-.99-.82-1.79-1.85-1.79s-1.82.8-1.82,1.79v8.72c0,1,.82,1.8,1.82,1.8s1.85-.8,1.85-1.8v-8.72Z"/>
    <path class="cls-1" d="M83.71,13.52c0-.99-.82-1.79-1.82-1.79s-1.81.8-1.81,1.79v3.77c0,1,.81,1.8,1.81,1.8s1.82-.8,1.82-1.8v-3.77Z"/>
  </g>
  <polygon class="cls-2" points="121.8 43.36 109.71 14.17 109.71 43.36 108.15 43.36 108.15 12.55 110.67 12.55 122.8 41.86 134.27 12.55 136.7 12.55 136.7 43.36 135.14 43.36 135.14 14.39 123.74 43.36 121.8 43.36"/>
  <g>
    <path class="cls-2" d="M144.03,31.29h16.81c-.31-6.33-3.9-9.55-8.4-9.55s-8.1,3.34-8.4,9.55M162.05,37.45c-1.08,4.02-4.55,6.54-9.1,6.54-5.98,0-10.52-4.24-10.52-11.77s4.41-11.77,10-11.77,10.05,3.94,10.05,12.16h-18.45c.17,6.89,4.11,10.06,8.97,10.06,3.64,0,6.49-1.88,7.4-5.22h1.65Z"/>
    <path class="cls-2" d="M168.33,43.36v-22.26h1.26l.26,4.71c1.18-3.73,3.64-5.36,6.59-5.36.83,0,1.73.17,2.26.35v1.5c-.74-.22-1.52-.39-2.39-.39-3.47,0-6.41,3.6-6.41,8.86v12.58h-1.56Z"/>
    <path class="cls-2" d="M197.05,30.86l-6.24,1.03c-5.98.98-7.71,2.82-7.71,5.77,0,3.38,2.64,5.01,6.28,5.01s7.67-2.87,7.67-7.15v-4.67ZM182.23,26.67c.35-3.69,3.69-6.21,8.36-6.21s8.01,2.66,8.01,7.15v15.75h-1.26l-.26-3.98c-1.34,2.44-3.99,4.62-8.15,4.62s-7.45-2.18-7.45-6.25c0-3.72,2.3-6,8.71-7.06l6.84-1.11v-2.27c0-3.38-2.47-5.56-6.54-5.56-3.77,0-6.41,2.05-6.71,4.92h-1.56Z"/>
  </g>
  <polygon class="cls-2" points="205.32 43.36 205.32 12.55 206.88 12.55 206.88 30.35 218.48 21.11 220.65 21.11 208.48 30.82 222.16 43.36 220.05 43.36 206.88 31.38 206.88 43.36 205.32 43.36"/>
  <path class="cls-2" d="M225.58,21.11h1.56v22.26h-1.56v-22.26ZM225.37,12.55h1.99v2.44h-1.99v-2.44Z"/>
</svg>