<?xml version="1.0" encoding="UTF-8"?>
<svg id="Layer_1" data-name="Layer 1" xmlns="http://www.w3.org/2000/svg" xmlns:xlink="http://www.w3.org/1999/xlink" viewBox="0 0 255.44 32">
  <defs>
    <style>
      .cls-1 {
        fill: #6c6d70;
        fill-rule: evenodd;
      }

      .cls-2 {
        fill: url(#linear-gradient);
      }
    </style>
    <linearGradient id="linear-gradient" x1="116.89" y1="30.46" x2="122.72" y2="4.14" gradientTransform="translate(0 34) scale(1 -1)" gradientUnits="userSpaceOnUse">
      <stop offset=".3" stop-color="#05a5e3"/>
      <stop offset="1" stop-color="#0078c1"/>
    </linearGradient>
  </defs>
  <path id="_Path_" data-name="&amp;lt;Path&amp;gt;" class="cls-2" d="M106.42,32L132.89,0v27.61c-2.71-.74-5.55-1.14-8.49-1.14-6.67,0-12.85,2.03-17.98,5.53h0Z"/>
  <path id="_Compound_Path_" data-name="&amp;lt;Compound Path&amp;gt;" class="cls-1" d="M250.09,2.97h-.94v-.38h2.31v.38h-.94v2.64h-.43v-2.64ZM252.14,2.59h.73l.94,2.51.92-2.51h.71v3.02h-.43v-2.61l-1.01,2.61h-.41l-1.01-2.61v2.61h-.45v-3.02ZM8.12,26.44H0V2.96h8.16c7.02,0,12.12,4.9,12.12,11.64,0,3.05-1.17,6.13-3.25,8.4-2.2,2.46-4.69,3.43-8.9,3.43h0ZM3.68,23.27h4.03c2.94,0,4.57-.53,5.99-1.95,1.63-1.68,2.74-4.41,2.74-6.75,0-4.8-3.76-8.44-8.73-8.44H3.68v17.14ZM45.47,26.44h-14.22V2.97h13.89v3.17h-10.19v6.75h8.44v3.17h-8.44v7.2h10.52v3.17ZM65.32,26.9c-1.6,0-3.14-.28-4.46-.79-.89-.35-1.49-.68-3.07-1.72l-.33-.21,1.92-2.91.33.21c1.29.84,1.82,1.14,2.61,1.44,1.01.36,2.08.56,3.22.56,2.54,0,4-1.11,4-3.04,0-.59-.08-1.09-.28-1.4-.38-.66-1.01-1.24-1.83-1.72-.1-.05-.28-.13-.54-.28-.66-.33-1.75-.89-3.34-1.73-3.63-1.9-5.18-3.78-5.18-6.29,0-3.85,3.25-6.42,8.09-6.42,1.47,0,2.86.2,4.05.58.96.3,1.54.58,2.91,1.37l.35.2-1.75,3.04-.35-.2c-1.19-.69-1.65-.91-2.34-1.14-.84-.26-2.2-.46-3.1-.46-2.41,0-4.05,1.12-4.05,2.79,0,1.39.69,2.13,5.53,4.62,1.7.88,2.92,1.65,3.76,2.34,1.21.99,1.93,2.66,1.93,4.43,0,4.09-3.17,6.74-8.06,6.74h0ZM97.82,26.9c-7.3,0-12.38-5.05-12.38-12.28s5.2-12.05,12.1-12.05c1.52,0,3.04.26,4.51.78,1.06.4,1.57.64,2.77,1.45l.33.23-1.9,2.79-.31-.21c-1.72-1.17-3.35-1.65-5.5-1.65-4.76,0-8.07,3.48-8.07,8.5,0,5.48,3.38,9.03,8.64,9.03,1.9,0,3.37-.3,5.22-1.04l.38-.15,1.09,2.94-.36.15c-1.39.61-1.98.84-3.2,1.12-1.14.26-2.15.4-3.3.4h0ZM163.5,26.44h-4.29l-6.41-9.71h-2.49v9.71h-3.7V2.97h7.5c2.91,0,4.36.46,5.78,1.78,1.22,1.16,1.96,2.94,1.96,4.74,0,1.9-.79,3.72-2.18,4.99-.89.88-1.7,1.32-3.15,1.68l6.98,10.27ZM150.31,13.54h3.37c2.87,0,4.26-1.3,4.26-4.01,0-1.32-.36-2.25-1.12-2.82-.56-.45-1.02-.56-3.14-.56h-3.37v7.4ZM184.35,26.44h-3.68V6.14h-7.78v-3.19h19.24v3.19h-7.78v20.29ZM219.57,26.44h-14.22V2.96h13.9v3.17h-10.2v6.75h8.44v3.17h-8.44v7.22h10.52v3.17ZM239.7,26.88c-1.59,0-3.12-.28-4.44-.79-.89-.35-1.5-.68-3.07-1.72l-.35-.21,1.93-2.91.33.21c1.27.84,1.82,1.14,2.61,1.44,1.01.38,2.08.56,3.2.56,2.56,0,4.01-1.11,4.01-3.04,0-.59-.1-1.07-.3-1.4-.36-.66-.99-1.24-1.82-1.7-.12-.07-.3-.15-.54-.3-.66-.33-1.77-.89-3.34-1.73-3.63-1.9-5.2-3.78-5.2-6.29,0-3.83,3.25-6.41,8.11-6.41,1.45,0,2.86.18,4.03.56.97.31,1.54.58,2.91,1.37l.35.2-1.75,3.04-.33-.2c-1.19-.69-1.67-.91-2.36-1.14-.83-.26-2.2-.46-3.09-.46-2.43,0-4.05,1.12-4.05,2.79,0,1.39.68,2.13,5.53,4.62,1.68.88,2.92,1.65,3.75,2.36,1.22.99,1.93,2.64,1.93,4.41,0,4.09-3.15,6.74-8.06,6.74h0Z"/>
</svg>