<?xml version="1.0" encoding="UTF-8"?>
<svg id="Layer_1" data-name="Layer 1" xmlns="http://www.w3.org/2000/svg" xmlns:xlink="http://www.w3.org/1999/xlink" viewBox="0 0 191.09 40">
  <defs>
    <style>
      .cls-1 {
        fill: none;
      }

      .cls-2 {
        fill: #d5ff00;
      }

      .cls-3 {
        clip-path: url(#clippath);
      }
    </style>
    <clipPath id="clippath">
      <rect class="cls-1" width="191.09" height="40"/>
    </clipPath>
  </defs>
  <g class="cls-3">
    <g>
      <path d="M51.73,8.17h10.07c6.39,0,10.51,5.16,10.51,12.22,0,3.88-1.3,7.3-3.81,9.4-1.78,1.47-4.08,2.31-7.09,2.31h-9.67V8.17ZM61.06,27.92c4.55,0,6.33-2.78,6.33-7.53s-2.07-8.07-6.19-8.07h-4.62v15.6h4.48Z"/>
      <path d="M73.03,23.53c0-5.12,3.65-9.07,8.97-9.07s8.97,3.95,8.97,9.07-3.65,9.07-8.97,9.07-8.97-3.95-8.97-9.07ZM86.35,23.53c0-3.35-1.57-5.62-4.35-5.62s-4.35,2.27-4.35,5.62,1.54,5.59,4.35,5.59,4.35-2.24,4.35-5.59Z"/>
      <path d="M91.9,23.53c0-5.12,3.35-9.07,8.57-9.07,4.45,0,7.2,2.58,7.8,6.29h-4.45c-.3-1.51-1.47-2.65-3.15-2.65-2.75,0-4.15,2.11-4.15,5.42s1.3,5.42,4.08,5.42c1.84,0,3.15-.97,3.45-2.91h4.38c-.3,3.65-3.15,6.56-7.73,6.56-5.42,0-8.8-3.95-8.8-9.07Z"/>
      <path d="M120.48,32.1v-2.01h-.1c-1.17,1.57-2.51,2.48-4.92,2.48-3.81,0-5.96-2.44-5.96-6.19v-11.45h4.52v10.68c0,2.01.91,3.11,2.84,3.11,2.14,0,3.45-1.61,3.45-3.88v-9.91h4.55v17.17h-4.39Z"/>
      <path d="M147.04,8.27h4.55v4.25h-4.55v-4.25ZM147.04,14.93h4.55v17.17h-4.55V14.93h0Z"/>
      <path d="M153.48,32.6h4.52c.37,1.07,1.34,1.91,3.45,1.91,2.58,0,3.81-1.24,3.81-3.58v-1.88h-.1c-1.01,1.14-2.31,2.01-4.48,2.01-3.81,0-7.56-3.01-7.56-8.2s3.08-8.4,7.43-8.4c2.14,0,3.71.84,4.75,2.27h.07v-1.81h4.38v15.86c0,2.41-.77,4.05-2.04,5.22-1.44,1.34-3.65,1.94-6.19,1.94-4.68,0-7.56-2.01-8.03-5.35h0ZM165.5,22.76c0-2.51-1.34-4.65-4.08-4.65-2.31,0-3.85,1.81-3.85,4.68s1.54,4.62,3.88,4.62c2.88,0,4.05-2.11,4.05-4.65Z"/>
      <path d="M176.15,17.27h.1c1.17-1.84,2.75-2.81,5.09-2.81,3.55,0,5.93,2.68,5.93,6.43v11.21h-4.55v-10.55c0-1.84-1.07-3.15-2.98-3.15-2.01,0-3.48,1.61-3.48,3.95v9.74h-4.55V14.93h4.45v2.34Z"/>
      <path d="M136.67,17.67c-3.55-.77-5.22-1.34-5.22-3.28,0-1.71,1.71-2.81,4.32-2.81,2.38,0,4.2,1.12,4.58,3.35h4.67c-.48-4.65-3.92-7.2-9.21-7.2s-9.17,2.44-9.17,7.16c0,4.99,3.92,6.12,8.2,7.09,3.65.84,5.93,1.3,5.93,3.65,0,2.21-2.17,3.08-4.65,3.08-3.42,0-5.06-1.14-5.39-4.02h-4.75c.17,5.06,3.85,7.93,10.34,7.93,5.39,0,9.3-2.71,9.3-7.56,0-5.16-4.02-6.33-8.94-7.4h0Z"/>
      <path d="M189.11,18.1c-1,0-1.81-.81-1.81-1.81s.81-1.81,1.81-1.81,1.81.81,1.81,1.81-.81,1.81-1.81,1.81ZM189.11,14.76c-.84,0-1.52.69-1.52,1.52s.69,1.52,1.52,1.52,1.52-.69,1.52-1.52-.69-1.52-1.52-1.52Z"/>
      <path d="M188.49,15.36h.59c.25,0,.41,0,.58.14.12.09.2.24.2.46,0,.36-.26.48-.37.51l.41.75h-.4l-.37-.69h-.31v.69h-.35v-1.85h0ZM188.84,15.65v.58h.12c.12,0,.16,0,.23,0,.08,0,.32-.02.32-.29,0-.04,0-.18-.15-.25-.07-.04-.16-.04-.37-.04h-.16Z"/>
      <path class="cls-2" d="M40,0H0v40h40V0Z"/>
      <path d="M34.44,30.56H5.55v3.89h28.89v-3.89Z"/>
      <path d="M20,28.33l2.75-2.75,8.36-8.37-2.78-2.78-6.39,6.39V5h-3.89v15.84s-6.39-6.39-6.39-6.39l-2.78,2.78,8.36,8.37,2.75,2.75Z"/>
    </g>
  </g>
</svg>