<?xml version="1.0" encoding="UTF-8"?>
<svg id="Layer_1" data-name="Layer 1" xmlns="http://www.w3.org/2000/svg" viewBox="0 0 155.12 30">
  <defs>
    <style>
      .cls-1 {
        fill: #0065a1;
      }
    </style>
  </defs>
  <path class="cls-1" d="M149.21,19.19c-.27,2-1.51,3.72-3.61,4.52-3.37,1.29-6.65-.6-7.99-3.94-.47-1.15-.63-2.33-.49-3.45l-12.35,4.87c-.63,1.09-1.61,2-3.01,2.52-2.66,1.01-5.26.08-6.87-1.97l25.81-10.16c.82-.33,1.56-.41,2.19-.41,2.3,0,4.38,1.4,5.53,3.61l5.77-2.27c-1.97-4.08-6.16-6.9-10.98-6.9-5.86,0-10.76,4.13-11.91,9.66-1.18-5.5-6.05-9.64-11.91-9.64-3.97,0-7.5,1.89-9.72,4.84v-4.19h-5.31V0l-6.84,2.74v12.51c-1.01-5.31-5.94-9.64-11.91-9.64s-11.3,4.63-12.07,10.62v-1.42c0-5.47-3.15-9.36-8.49-9.36-4.08,0-5.53,2.05-6.3,3.31v-2.55h-6.43v8.95c-1.2-5.47-6.08-9.58-11.91-9.58s-10.98,4.35-11.99,10.07c-.03-2.05-.47-4-1.26-5.72l-13.22,5.17,1.61,4.13,6.38-2.52c-.08,2.93-1.72,5.56-4.82,6.73-4.32,1.64-8.54-.68-10.24-4.9-1.67-4.22-.19-8.73,4.13-10.37,2.87-1.09,5.69-.44,7.75,1.34l6.54-2.57c-2.6-3.28-6.62-5.36-11.11-5.36C6.35,1.59,0,7.94,0,15.79s6.35,14.21,14.21,14.21c7.06,0,12.95-5.17,14.01-11.93.14,6.62,5.53,11.93,12.18,11.93,5.83,0,10.7-4.11,11.91-9.58v8.7h6.87s-.03-12.97,0-13.3l-13.33,5.26c-.6,1.15-1.61,2.08-3.04,2.63-2.68,1.01-5.31.08-6.93-2.03,0,0,25.35-9.96,25.43-9.99.66-.27,1.29-.36,1.83-.36,3.59,0,3.59,3.72,3.59,5.31v12.48h6.84v-9.77c.77,5.99,5.89,10.62,12.07,10.62,5.83,0,10.7-4.11,11.91-9.55v8.7h6.82v-13.22l-13.36,5.26c-.63,1.12-1.61,2.03-3.01,2.55-2.66,1.01-5.28.08-6.9-1.97l28.49-11.2c-1.51,2.03-2.41,4.54-2.41,7.28,0,6.73,5.45,12.18,12.18,12.18,5.86,0,10.76-4.13,11.91-9.66,1.18,5.5,6.05,9.64,11.91,9.64s10.84-4.22,11.93-9.8l-5.91-.99ZM34.35,17.49c-.08-2.46,1.18-4.68,3.72-5.67,2.49-.96,4.95-.19,6.57,1.61l-10.29,4.05ZM79.54,17.57c-.11-2.46,1.15-4.74,3.72-5.72,2.52-.96,4.98-.19,6.62,1.64l-10.35,4.08ZM116.99,11.85c2.52-.96,5.01-.16,6.62,1.67l-10.35,4.08c-.11-2.49,1.18-4.79,3.72-5.75Z"/>
</svg>