<?xml version="1.0" encoding="UTF-8"?>
<svg id="Layer_1" data-name="Layer 1" xmlns="http://www.w3.org/2000/svg" viewBox="0 0 225.82 40">
  <defs>
    <style>
      .cls-1 {
        fill: #de1e34;
        fill-rule: evenodd;
      }
    </style>
  </defs>
  <g id="g7">
    <polygon id="polygon9" class="cls-1" points="204.63 30.53 213.2 30.53 213.2 0 204.63 0 204.63 30.53 204.63 30.53"/>
    <polygon id="polygon11" class="cls-1" points="225.82 0 225.82 30.53 217.24 30.53 217.24 0 225.82 0 225.82 0"/>
    <polygon id="polygon13" class="cls-1" points="18.29 11.86 11.35 11.86 11.35 0 0 0 0 30.53 11.35 30.53 11.35 15.39 18.29 15.39 18.29 30.53 29.65 30.53 29.65 0 18.29 0 18.29 11.86 18.29 11.86"/>
    <path id="path15" class="cls-1" d="M71.59,11.35l-.69-2.02h-9.34v21.2h9.34v-12.74h0c0-2.78,1.77-4.29,3.28-4.29,1.26,0,2.9.25,2.9,3.03h0v14h9.34v-13.75h0c0-7.7-8.64-10.72-14.82-5.43h0Z"/>
    <path id="path17" class="cls-1" d="M167.47,21.64l-4.35-12.3h-6.37l-4.35,12.8-4.54-12.8h-12.49l-4.48,10.79-6.31-10.79h-10.66l12.55,21.45-1.64,4.04h0c-.57,1.26-1.93,1.33-2.19.13,0-2.17-1.76-3.92-3.93-3.92s-3.93,1.76-3.93,3.92c.02,2.27,2.29,5.24,6.76,5.05,4.48-.19,6.37-3.91,7-5.49h0l10.37-25.09,7.48,21.11h6.81l4.16-12.18,4.29,12.18h6.43l7.25-21.2h-3.72l-4.16,12.3h0Z"/>
    <path id="path19" class="cls-1" d="M45.73,8.26c-7.14,0-12.93,5.31-12.93,11.86s5.79,11.87,12.93,11.87,12.94-5.31,12.94-11.87-5.79-11.86-12.94-11.86h0ZM48.95,25.67c0,1.78-1.44,3.22-3.22,3.22s-3.22-1.44-3.22-3.22h0v-11.1h0c0-1.78,1.44-3.22,3.22-3.22s3.22,1.44,3.22,3.22h0v11.1h0Z"/>
    <path id="path21" class="cls-1" d="M114.95,21.82c.07-.5.1-1.19.1-1.7,0-6.55-5.79-11.86-12.93-11.86s-12.94,5.31-12.94,11.86,5.79,11.87,12.94,11.87c4.91,0,9.18-2.51,11.37-6.2h0l-2.86-1.06h0c-1.73,2.64-4.89,4.41-8.51,4.41-1.78,0-3.22-1.68-3.22-3.46h0v-3.85h16.05ZM98.91,14.57c0-1.78,1.44-3.22,3.22-3.22s3.22,1.44,3.22,3.22h0v4.23h-6.43v-4.23h0Z"/>
    <path id="path23" class="cls-1" d="M201.37,21.82c.07-.5.1-1.19.1-1.7,0-6.55-5.79-11.86-12.94-11.86s-12.93,5.31-12.93,11.86,5.79,11.87,12.93,11.87c4.91,0,9.18-2.51,11.37-6.2h0l-2.86-1.06h0c-1.73,2.64-4.89,4.41-8.51,4.41-1.78,0-3.22-1.68-3.22-3.46h0v-3.85h16.05ZM185.32,14.57c0-1.78,1.44-3.22,3.22-3.22s3.22,1.44,3.22,3.22h0v4.23h-6.43v-4.23h0Z"/>
  </g>
</svg>