<?xml version="1.0" encoding="UTF-8"?>
<svg id="Layer_1" data-name="Layer 1" xmlns="http://www.w3.org/2000/svg" viewBox="0 0 176.53 30">
  <defs>
    <style>
      .cls-1 {
        fill: #4e84c4;
      }

      .cls-2 {
        fill: #003395;
      }
    </style>
  </defs>
  <path class="cls-1" d="M170.36,21.36c-.99,0-2.23.07-3.29.14,4.74-4,8.28-7.37,8.28-10.74,0-3.78-3.1-6.23-7.9-6.23-3.09,0-5.37.89-7.89,3.08l-.24.21,2.84,2.26.15-.14c1.59-1.43,3.03-2.09,4.55-2.09,2.39,0,3.75,1.12,3.75,3.09,0,2.8-4.12,5.68-10.83,10.94l-.1.08v2.91h16.83v-3.5h-6.16ZM153.69,13.8c2.23.74,5.2,2.11,5.2,5.56s-3.77,6.11-9.18,6.11c-3.39,0-6.71-1.07-9.11-2.94l-.24-.19,2.94-2.75.16.12c1.82,1.38,4.19,2.2,6.33,2.2,2.56,0,4.09-.85,4.09-2.29s-1.43-1.9-3.61-2.62l-3.49-1.2c-3.4-1.12-5.2-3.01-5.2-5.47,0-3.31,3.7-5.81,8.6-5.81,2.93,0,5.78.94,7.82,2.57l.23.18-2.62,2.56-.16-.11c-1.67-1.13-3.34-1.65-5.26-1.65-2.25,0-3.64.79-3.64,2.06s1.68,1.86,3.62,2.49l.16.05,3.35,1.11"/>
  <path class="cls-2" d="M137.08,13.16c0-1.28-1.04-2.33-2.33-2.33s-2.33,1.04-2.33,2.33,1.04,2.33,2.33,2.33,2.33-1.04,2.33-2.33ZM117.07,24.85v-3.67h-13.22v-4.83h6.67v-3.39h-6.67v-4.28h13.01v-3.49h-17.52v19.66h17.74ZM80.72,24.85v-12.7l13.35,12.7h3.08V5.19h-4.04v12.52l-13.4-12.52h-3.08v19.66h4.08ZM74.54,24.85v-3.67h-13.22v-4.83h6.67v-3.39h-6.67v-4.28h13.01v-3.49h-17.52v19.66h17.74ZM54.61,24.85v-3.67h-13.32V5.19h-4.51v19.66h17.83ZM119.25,24.85V5.19h4.51v15.99h13.32v3.67h-17.83Z"/>
  <path class="cls-2" d="M14.64,17.75c0-.52-.2-1.01-.57-1.38l-.43-.43c-.99-.98-1.53-2.29-1.53-3.69,0-1.39.54-2.71,1.53-3.69l5.7-5.7-1.81-1.81c-1.4-1.41-3.67-1.41-5.07,0L1.05,12.47c-1.41,1.4-1.41,3.67,0,5.07l7.3,7.3,5.71-5.71c.37-.37.58-.86.58-1.38Z"/>
  <path class="cls-1" d="M28.95,12.47l-7.3-7.3-5.71,5.7c-.37.37-.58.86-.58,1.38,0,.52.2,1.01.57,1.38l.43.43c.99.98,1.53,2.29,1.53,3.69,0,1.4-.54,2.71-1.53,3.69l-5.71,5.7,1.81,1.81c1.4,1.4,3.67,1.4,5.07,0l11.41-11.41c1.4-1.4,1.4-3.67,0-5.07Z"/>
</svg>