<?xml version="1.0" encoding="UTF-8"?>
<svg id="Layer_1" data-name="Layer 1" xmlns="http://www.w3.org/2000/svg" xmlns:xlink="http://www.w3.org/1999/xlink" viewBox="0 0 200.59 49">
  <defs>
    <style>
      .cls-1 {
        mask: url(#mask);
      }

      .cls-2 {
        fill: #7b83eb;
      }

      .cls-3 {
        isolation: isolate;
        opacity: .1;
      }

      .cls-4 {
        fill: url(#linear-gradient);
      }

      .cls-5 {
        fill: #fff;
      }

      .cls-6 {
        fill: #5059c9;
      }
    </style>
    <mask id="mask" x="-.82" y="0" width="203.15" height="49" maskUnits="userSpaceOnUse">
      <g id="mask0_214_8614" data-name="mask0 214 8614">
        <path class="cls-5" d="M202.33,0H-.82v49h203.15V0Z"/>
      </g>
    </mask>
    <linearGradient id="linear-gradient" x1="4.71" y1="41.75" x2="22.28" y2="11.27" gradientTransform="translate(0 51) scale(1 -1)" gradientUnits="userSpaceOnUse">
      <stop offset="0" stop-color="#5a62c3"/>
      <stop offset=".5" stop-color="#4d55bd"/>
      <stop offset="1" stop-color="#3940ab"/>
    </linearGradient>
  </defs>
  <g class="cls-1">
    <g>
      <path class="cls-6" d="M36.79,18.37h13.62c1.29,0,2.33,1.04,2.33,2.33v12.39c0,4.73-3.84,8.55-8.56,8.55h-.04c-4.74,0-8.56-3.83-8.56-8.55v-13.5c-.01-.67.53-1.22,1.21-1.22Z"/>
      <path class="cls-6" d="M45.99,15.93c3.05,0,5.52-2.47,5.52-5.52s-2.47-5.52-5.52-5.52-5.52,2.47-5.52,5.52,2.47,5.52,5.52,5.52Z"/>
      <path class="cls-2" d="M28.81,15.92c4.4,0,7.97-3.56,7.97-7.96s-3.57-7.96-7.97-7.96-7.97,3.56-7.97,7.96,3.57,7.96,7.97,7.96Z"/>
      <path class="cls-2" d="M39.46,18.37h-22.49c-1.26.03-2.28,1.08-2.25,2.36v14.13c-.18,7.62,5.86,13.95,13.49,14.13,7.63-.18,13.68-6.51,13.49-14.13v-14.13c.03-1.28-.98-2.33-2.25-2.36Z"/>
      <path class="cls-3" d="M29.43,18.37v19.8c0,.91-.56,1.73-1.39,2.06-.27.11-.56.17-.84.17h-11.4c-.15-.41-.31-.81-.44-1.22-.44-1.4-.65-2.86-.65-4.34v-14.12c-.03-1.26.97-2.32,2.25-2.36h12.47Z"/>
      <path class="cls-3" d="M28.21,18.37v21.03c0,.29-.06.58-.17.84-.35.84-1.17,1.39-2.07,1.39h-9.59c-.21-.41-.41-.81-.58-1.22-.17-.41-.31-.81-.44-1.22-.44-1.4-.65-2.86-.65-4.34v-14.12c-.03-1.26.97-2.32,2.25-2.36h11.23Z"/>
      <path class="cls-3" d="M28.21,18.37v18.58c-.01,1.24-1.01,2.23-2.25,2.25h-10.6c-.44-1.4-.65-2.86-.65-4.34v-14.13c-.03-1.26.97-2.32,2.25-2.36h11.25Z"/>
      <path class="cls-3" d="M26.97,18.37v18.58c-.01,1.24-1.01,2.23-2.25,2.25h-9.38c-.44-1.4-.65-2.86-.65-4.34v-14.13c-.03-1.26.97-2.32,2.25-2.36h10.02Z"/>
      <path class="cls-3" d="M29.44,12.04v3.86c-.21.01-.41.03-.62.03s-.41-.01-.62-.03c-.41-.03-.83-.1-1.22-.2-2.49-.59-4.54-2.33-5.52-4.67-.17-.39-.3-.8-.39-1.22h6.11c1.25-.01,2.26,1,2.26,2.23Z"/>
      <path class="cls-3" d="M28.21,13.26v2.64c-.41-.03-.83-.1-1.22-.2-2.49-.59-4.54-2.33-5.52-4.67h4.5c1.24,0,2.24,1,2.25,2.23Z"/>
      <path class="cls-3" d="M28.21,13.26v2.64c-.41-.03-.83-.1-1.22-.2-2.49-.59-4.54-2.33-5.52-4.67h4.5c1.24,0,2.24,1,2.25,2.23Z"/>
      <path class="cls-3" d="M26.97,13.26v2.44c-2.49-.59-4.54-2.33-5.52-4.67h3.28c1.25,0,2.25,1,2.25,2.23Z"/>
      <path class="cls-4" d="M2.25,11.02h22.49c1.24,0,2.25,1.01,2.25,2.25v22.46c0,1.24-1.01,2.25-2.25,2.25H2.25c-1.24,0-2.25-1.01-2.25-2.25V13.26c0-1.24,1-2.25,2.25-2.25Z"/>
      <path class="cls-5" d="M19.4,19.57h-4.5v12.23h-2.85v-12.23h-4.47v-2.37h11.84v2.37h-.01Z"/>
      <path class="cls-6" d="M75.47,31.54h-2.29v-9.01c0-.74.04-1.64.14-2.71h-.04c-.14.6-.27,1.04-.38,1.31l-4.16,10.4h-1.59l-4.17-10.33c-.11-.31-.24-.77-.37-1.39h-.04c.06.56.08,1.46.08,2.72v8.98h-2.14v-13.92h3.26l3.67,9.28c.28.72.46,1.25.55,1.59h.04c.24-.73.44-1.28.58-1.63l3.74-9.24h3.13v13.95h-.01ZM79.38,19.51c-.37,0-.69-.13-.94-.37-.27-.24-.39-.55-.39-.91s.13-.67.39-.93c.27-.25.58-.36.94-.36s.7.13.97.36c.27.25.39.55.39.93,0,.35-.13.65-.39.9-.27.25-.59.38-.97.38ZM80.49,31.54h-2.25v-9.94h2.25v9.94ZM90.14,31.09c-.8.46-1.74.69-2.83.69-1.48,0-2.67-.46-3.58-1.39-.91-.93-1.36-2.12-1.36-3.59,0-1.64.49-2.95,1.46-3.94.97-1,2.28-1.49,3.91-1.49.91,0,1.7.15,2.4.48v2.09c-.69-.52-1.43-.77-2.22-.77-.96,0-1.73.32-2.35.97-.6.65-.91,1.49-.91,2.53s.28,1.84.86,2.44c.58.59,1.35.9,2.31.9.82,0,1.57-.29,2.29-.87v1.96h.03ZM97.73,23.75c-.27-.21-.66-.32-1.18-.32-.66,0-1.22.29-1.67.9-.45.6-.67,1.42-.67,2.46v4.76h-2.25v-9.94h2.25v2.05h.04c.22-.7.56-1.25,1.01-1.64.46-.39.97-.59,1.53-.59.41,0,.72.06.93.18v2.15h.01ZM103.15,31.78c-1.53,0-2.77-.46-3.68-1.39-.91-.93-1.38-2.16-1.38-3.69,0-1.67.48-2.98,1.43-3.92.96-.94,2.25-1.4,3.87-1.4s2.77.46,3.64,1.38c.87.91,1.31,2.18,1.31,3.79s-.46,2.85-1.41,3.8c-.93.95-2.19,1.43-3.78,1.43ZM103.26,23.16c-.89,0-1.57.31-2.09.93-.51.62-.77,1.46-.77,2.54s.25,1.87.77,2.46c.52.6,1.21.9,2.08.9s1.57-.29,2.05-.88c.48-.59.72-1.43.72-2.51s-.24-1.94-.72-2.54c-.46-.59-1.15-.88-2.04-.88ZM109.58,31.23v-2.09c.84.65,1.77.95,2.78.95,1.36,0,2.04-.41,2.04-1.21,0-.22-.06-.42-.17-.58-.11-.15-.27-.29-.48-.42-.2-.13-.44-.24-.7-.34-.27-.1-.56-.21-.9-.34-.41-.17-.77-.34-1.1-.52-.32-.18-.6-.39-.82-.62-.21-.22-.38-.49-.49-.79-.11-.29-.17-.63-.17-1.02,0-.48.11-.9.34-1.26.22-.36.53-.67.91-.93.38-.25.81-.43,1.31-.56.49-.13.98-.18,1.5-.18.91,0,1.74.14,2.47.42v1.97c-.7-.48-1.5-.72-2.42-.72-.28,0-.55.03-.77.08-.22.06-.42.14-.59.24-.17.1-.3.22-.38.38-.08.14-.14.31-.14.48,0,.21.04.39.14.55.08.15.23.28.41.39.18.11.39.21.65.31s.53.2.86.31c.42.17.82.35,1.15.53.34.18.63.39.87.62.24.22.42.49.55.8.13.29.2.66.2,1.07,0,.51-.11.94-.35,1.32-.23.38-.55.69-.93.93-.39.25-.84.44-1.35.55-.51.13-1.04.18-1.6.18-1.08.04-2.02-.14-2.83-.51ZM122.8,31.78c-1.53,0-2.77-.46-3.68-1.39-.91-.93-1.38-2.16-1.38-3.69,0-1.67.48-2.98,1.43-3.92.96-.94,2.25-1.4,3.87-1.4s2.77.46,3.64,1.38c.87.91,1.31,2.18,1.31,3.79s-.47,2.85-1.41,3.8c-.94.95-2.21,1.43-3.78,1.43ZM122.89,23.16c-.89,0-1.57.31-2.09.93-.51.62-.77,1.46-.77,2.54s.25,1.87.77,2.46c.52.6,1.21.9,2.08.9s1.57-.29,2.05-.88c.48-.59.72-1.43.72-2.51s-.24-1.94-.72-2.54c-.46-.59-1.15-.88-2.04-.88ZM135.15,18.65c-.31-.17-.65-.27-1.04-.27-1.1,0-1.64.62-1.64,1.85v1.35h2.32v1.77h-2.3v8.17h-2.25v-8.17h-1.7v-1.77h1.7v-1.61c0-1.05.34-1.88,1.02-2.48.69-.6,1.55-.91,2.57-.91.56,0,1,.06,1.32.18v1.89ZM141.58,31.43c-.44.22-1.03.34-1.74.34-1.93,0-2.9-.93-2.9-2.78v-5.61h-1.66v-1.77h1.66v-2.3l2.25-.65v2.95h2.37v1.77h-2.37v4.97c0,.59.11,1.01.32,1.26.21.25.57.38,1.07.38.38,0,.72-.11,1-.34v1.78ZM157.36,19.58h-4.01v11.96h-2.32v-11.96h-3.99v-1.96h10.32v1.96ZM165.22,27.17h-6.78c.03.91.31,1.63.86,2.12.53.51,1.28.74,2.24.74,1.07,0,2.04-.32,2.92-.95v1.81c-.91.58-2.11.86-3.6.86s-2.61-.45-3.44-1.35c-.83-.9-1.25-2.18-1.25-3.8,0-1.54.46-2.81,1.38-3.78.91-.97,2.05-1.46,3.42-1.46s2.42.44,3.16,1.31c.75.87,1.13,2.09,1.13,3.64v.87h-.03ZM163.05,25.59c0-.81-.2-1.43-.58-1.89-.38-.45-.9-.67-1.56-.67s-1.2.24-1.64.7c-.45.48-.73,1.09-.83,1.85h4.61ZM174.6,31.54h-2.19v-1.56h-.04c-.69,1.19-1.7,1.78-3.02,1.78-.98,0-1.74-.27-2.31-.8-.55-.53-.83-1.24-.83-2.11,0-1.88,1.08-2.98,3.25-3.28l2.95-.42c0-1.42-.67-2.12-2.02-2.12-1.18,0-2.25.41-3.21,1.22v-1.96c1.05-.62,2.26-.93,3.64-.93,2.52,0,3.77,1.24,3.77,3.71v6.47h.01ZM172.42,26.65l-2.09.29c-.65.08-1.14.24-1.46.48-.32.22-.49.63-.49,1.21,0,.42.15.77.45,1.04.3.27.7.41,1.21.41.69,0,1.25-.24,1.7-.73.45-.48.67-1.09.67-1.82v-.87h.01ZM191.81,31.54h-2.25v-5.42c0-1.04-.14-1.8-.44-2.26-.3-.46-.79-.7-1.49-.7-.59,0-1.1.29-1.5.88-.41.59-.62,1.29-.62,2.12v5.38h-2.26v-5.6c0-1.85-.66-2.78-1.97-2.78-.6,0-1.11.28-1.5.83-.39.56-.59,1.28-.59,2.16v5.38h-2.25v-9.94h2.25v1.57h.04c.72-1.21,1.77-1.81,3.13-1.81.69,0,1.29.18,1.8.56.52.38.87.87,1.05,1.49.74-1.38,1.84-2.06,3.3-2.06,2.19,0,3.29,1.35,3.29,4.04v6.16ZM193.53,31.23v-2.09c.84.65,1.77.95,2.78.95,1.36,0,2.04-.41,2.04-1.21,0-.22-.06-.42-.17-.58-.11-.15-.27-.29-.48-.42-.2-.13-.44-.24-.7-.34-.27-.1-.56-.21-.9-.34-.41-.17-.77-.34-1.1-.52-.32-.18-.6-.39-.81-.62-.21-.22-.38-.49-.49-.79-.11-.29-.17-.63-.17-1.02,0-.48.11-.9.34-1.26.23-.36.53-.67.91-.93.38-.25.81-.43,1.31-.56.49-.13.98-.18,1.5-.18.91,0,1.74.14,2.47.42v1.97c-.7-.48-1.5-.72-2.42-.72-.28,0-.55.03-.77.08-.23.06-.42.14-.59.24s-.29.22-.38.38c-.08.14-.14.31-.14.48,0,.21.04.39.14.55.08.15.23.28.41.39.18.11.39.21.65.31.25.1.53.2.86.31.42.17.82.35,1.15.53.34.18.63.39.87.62.24.22.42.49.55.8.13.29.2.66.2,1.07,0,.51-.11.94-.35,1.32-.24.38-.55.69-.93.93-.39.25-.84.44-1.35.55-.51.13-1.04.18-1.6.18-1.08.04-2.04-.14-2.83-.51Z"/>
    </g>
  </g>
</svg>