<?xml version="1.0" encoding="UTF-8"?>
<svg id="Layer_1" data-name="Layer 1" xmlns="http://www.w3.org/2000/svg" xmlns:xlink="http://www.w3.org/1999/xlink" viewBox="0 0 111 37">
  <defs>
    <style>
      .cls-1 {
        fill: none;
      }

      .cls-2 {
        fill: #282c36;
        fill-rule: evenodd;
      }

      .cls-3 {
        clip-path: url(#clippath);
      }
    </style>
    <clipPath id="clippath">
      <rect class="cls-1" width="111" height="37"/>
    </clipPath>
  </defs>
  <g class="cls-3">
    <g>
      <path class="cls-2" d="M85.19,22.85c-.06,3.73,2.87,7.09,6.84,7.12,3.76.02,6.84-3.17,6.89-7.02.05-3.6-2.71-7.21-6.88-7.2-4.08,0-6.91,3.46-6.85,7.11ZM100.93,33.6c-3.01,2.57-6.42,3.7-10.26,3.32-3.07-.3-5.76-1.56-7.99-3.77-4.58-4.52-5.65-11.47-2.62-17.1,1.84-3.43,4.6-5.72,8.25-6.79,3.62-1.05,7.12-.6,10.49,1.3.01-.23.03-.39.03-.55.01-.73.45-1.24,1.16-1.25,1.53-.02,3.05-.02,4.58,0,.67,0,1.14.55,1.14,1.24,0,4.57-.02,9.15.02,13.72,0,1.13.12,2.28.33,3.39.31,1.63,1.24,2.4,2.84,2.56.4.04.79.06,1.19.07.52.02.89.35.9.9.01,1.69,0,3.37,0,5.06,0,.33-.16.62-.44.74-.41.18-.84.38-1.28.43-1.82.24-3.62.14-5.33-.63-1.14-.51-2.04-1.31-2.77-2.34-.07-.09-.13-.18-.23-.32Z"/>
      <path class="cls-2" d="M32.66,18.47V1.28c0-.88.42-1.27,1.36-1.28,1.52,0,3.04,0,4.56,0,.98,0,1.42.42,1.42,1.35,0,5.12,0,10.24,0,15.36,0,.51.16.93.64,1.2.61.36,1.23.24,1.79-.33,1.04-1.06,2.08-2.13,3.13-3.2,1.46-1.49,2.92-2.97,4.37-4.47.36-.37.77-.53,1.29-.53,1.96.01,3.92,0,5.88,0,.92,0,1.45.56,1.3,1.4-.04.25-.23.51-.41.71-2.59,2.75-5.19,5.48-7.78,8.22-.45.47-.91.94-1.33,1.43-.71.83-.75,1.4-.05,2.24.59.71,1.27,1.37,1.94,2.02,2.98,2.91,5.96,5.81,8.95,8.71.3.29.6.58.89.87.37.36.43.79.25,1.25-.17.43-.5.7-1.01.73-.18.01-.36.02-.55.02-2.02,0-4.04,0-6.06,0-.58,0-1.03-.15-1.45-.57-3.12-3.12-6.26-6.21-9.39-9.31-.38-.37-.81-.6-1.37-.48-.5.11-.84.4-.98.88-.04.14-.05.3-.05.44,0,2.57,0,5.13,0,7.7,0,.86-.44,1.27-1.35,1.27-1.58,0-3.16.01-4.74,0-.29,0-.62-.08-.85-.23-.19-.12-.29-.4-.38-.62-.05-.12-.01-.27-.01-.41,0-5.73,0-11.46,0-17.2Z"/>
      <path class="cls-2" d="M21.25,22.87c.09-3.63-2.82-7.1-7.1-7.14-3.9-.04-7.11,3.22-7.11,7.12,0,3.92,3.2,7.12,7.11,7.12,4.07,0,7.17-3.35,7.1-7.1ZM28.29,22.85c.1,7.46-6,14.15-14.17,14.15C6.32,37-.08,30.63,0,22.69c.08-7.75,6.45-14,14.16-13.99,7.95,0,14.23,6.54,14.14,14.15Z"/>
      <path class="cls-2" d="M60.94,12.58c0-3.76,0-7.53,0-11.29,0-.89.35-1.28,1.17-1.28,1.31,0,2.62,0,3.92,0,.66,0,1.22.42,1.21,1.32-.03,2.18,0,4.35,0,6.53,0,1.02.45,1.51,1.4,1.52,1.77,0,3.54,0,5.32,0,.72,0,1.12.41,1.13,1.2.01,1.48.01,2.97,0,4.46,0,.77-.4,1.19-1.12,1.18-1.73,0-3.46-.02-5.19-.03-.23,0-.47.02-.69.09-.56.18-.85.7-.85,1.49,0,1.81,0,3.62,0,5.42-.01,3.03,1.79,5.74,4.43,6.64.88.3,1.77.41,2.68.27.92-.14,1.31.24,1.41,1.34.12,1.29.25,2.58.38,3.87.05.55.05,1.09-.45,1.4-.22.14-.49.2-.75.23-4.16.41-7.71-1-10.6-4.3-1.9-2.16-2.98-4.77-3.33-7.73-.06-.53-.08-1.08-.08-1.62,0-3.57,0-7.14,0-10.71Z"/>
    </g>
  </g>
</svg>