<?xml version="1.0" encoding="UTF-8"?>
<svg id="Layer_1" xmlns="http://www.w3.org/2000/svg" version="1.1" viewBox="0 0 136.4 20">
  <!-- Generator: Adobe Illustrator 29.8.3, SVG Export Plug-In . SVG Version: 2.1.1 Build 3)  -->
  <defs>
    <style>
      .st0 {
        fill: #62d84e;
      }

      .st0, .st1 {
        fill-rule: evenodd;
      }
    </style>
  </defs>
  <path class="st1" d="M32.3,6.2c-1.4,0-2.7.5-3.8,1.4v-1.2h-3.4v13.4h3.6v-8.6c.8-1,2-1.6,3.2-1.7.5,0,1,0,1.4.2v-3.4c-.3,0-.7,0-1,0"/>
  <path class="st1" d="M1.1,15.6c1,.9,2.3,1.3,3.7,1.3,1,0,1.7-.5,1.7-1.1,0-2-6.5-1.3-6.5-5.6s2.5-4.2,5.1-4.2,3.2.5,4.5,1.4l-1.7,2.6c-.7-.6-1.6-.9-2.6-.9-1,0-1.8.4-1.8,1.1,0,1.7,6.5,1,6.5,5.7s-2.5,4.1-5.3,4.1c-1.9,0-3.8-.6-5.4-1.8l1.7-2.6h0Z"/>
  <path class="st1" d="M23.6,12.9c0-3.7-2.6-6.9-6.3-6.9s-6.5,3.3-6.5,7c-.2,3.7,2.7,6.8,6.4,7,.2,0,.4,0,.6,0,2.1,0,4.1-.8,5.5-2.4l-2-2c-.9.9-2.1,1.5-3.4,1.5-1.8,0-3.4-1.3-3.6-3.2h9.3c0-.3,0-.7,0-1h0ZM14.4,11.3c.3-1.4,1.5-2.4,2.9-2.3,1.3,0,2.5,1,2.6,2.3h-5.5Z"/>
  <polygon class="st1" points="41.9 14.5 45.6 6.3 49.3 6.3 43.2 19.7 40.7 19.7 34.5 6.3 38.3 6.3 41.9 14.5"/>
  <path class="st1" d="M52.3,0c1.3,0,2.3,1.1,2.3,2.3s-1.1,2.3-2.3,2.3c-1.3,0-2.3-1-2.3-2.3,0-1.3,1-2.3,2.3-2.3h0"/>
  <rect x="50.5" y="6.3" width="3.6" height="13.4"/>
  <path class="st1" d="M68.9,17c-1.4,2-3.7,3.1-6.1,3-3.9,0-7.1-2.9-7.2-6.8,0-3.9,2.9-7.1,6.8-7.2h.4c2.2,0,4.3,1,5.6,2.7l-2.5,2.2c-.7-1-1.9-1.6-3.1-1.6-2,0-3.6,1.6-3.6,3.6h0c0,2,1.5,3.7,3.4,3.7h.3c1.3,0,2.5-.7,3.2-1.8l2.7,2.1h0Z"/>
  <path class="st1" d="M81.9,17.6c-1.4,1.6-3.4,2.4-5.5,2.4-3.7.2-6.8-2.7-7-6.4,0-.2,0-.4,0-.6,0-3.7,2.5-7,6.5-7s6.3,3.1,6.3,6.9,0,.7,0,1h-9.3c.2,1.8,1.8,3.2,3.6,3.2,1.3,0,2.5-.6,3.4-1.5l2,2h0ZM78.6,11.3c-.2-1.3-1.3-2.3-2.6-2.3s-2.6,1-2.9,2.3h5.5Z"/>
  <path class="st1" d="M83.7,19.7V6.3h3.4v1.1c1.1-.9,2.4-1.4,3.8-1.4s3.5.8,4.6,2.2c1,1.3,1.5,3,1.4,4.7v6.8h-3.6v-7.1c0-.9-.2-1.8-.8-2.5-.5-.5-1.3-.8-2-.7-1.3,0-2.5.6-3.2,1.7v8.7h-3.6,0Z"/>
  <path class="st0" d="M106.1,6c-4.3,0-7.8,3.5-7.9,7.8,0,2.2.9,4.2,2.5,5.7.5.5,1.4.6,2,.1,2-1.5,4.7-1.5,6.7,0,.6.5,1.5.4,2-.1,3.1-3,3.3-7.9.3-11.1-1.5-1.5-3.5-2.4-5.6-2.4M106.1,17.8c-2.1,0-3.8-1.6-3.9-3.7v-.2c0-2.2,1.7-3.9,3.9-3.9s3.9,1.7,3.9,3.9c0,2.1-1.6,3.8-3.7,3.9h-.2"/>
  <polygon class="st1" points="121 19.7 118.3 19.7 113 6.3 116.6 6.3 119.5 14 122.4 6.3 125.3 6.3 128.2 14 131.1 6.3 134.7 6.3 129.4 19.7 126.7 19.7 123.8 12.1 121 19.7"/>
  <path d="M134.7,18.2h-.3v.6h-.3v-1.6h.6c.3,0,.5.2.5.5h0c0,.2-.1.4-.3.5l.3.6h-.3l-.3-.6h0ZM134.4,18h.4c.1,0,.3-.1.3-.3s-.1-.3-.3-.3h-.4v.5h0Z"/>
  <path d="M134.7,16.6c.8,0,1.4.6,1.4,1.4s-.6,1.4-1.4,1.4-1.4-.6-1.4-1.4h0c0-.8.6-1.4,1.4-1.4M134.7,16.3c-.9,0-1.7.7-1.7,1.7s.7,1.7,1.7,1.7,1.7-.7,1.7-1.7-.7-1.7-1.7-1.7h0Z"/>
</svg>