<?xml version="1.0" encoding="UTF-8"?>
<svg id="Layer_1" data-name="Layer 1" xmlns="http://www.w3.org/2000/svg" viewBox="0 0 150.18 38">
  <defs>
    <style>
      .cls-1 {
        fill: #2eb67d;
      }

      .cls-2 {
        fill: #36c5f0;
      }

      .cls-3 {
        fill: #ecb22e;
      }

      .cls-4 {
        fill: #e01e5a;
      }
    </style>
  </defs>
  <path d="M48.04,29.92l1.88-4.36c2.03,1.51,4.72,2.3,7.38,2.3,1.97,0,3.21-.76,3.21-1.91-.03-3.21-11.77-.7-11.86-8.74-.03-4.08,3.6-7.23,8.74-7.23,3.06,0,6.11.76,8.29,2.48l-1.75,4.45c-2-1.27-4.48-2.18-6.84-2.18-1.6,0-2.66.76-2.66,1.72.03,3.15,11.86,1.42,11.98,9.11,0,4.18-3.54,7.11-8.62,7.11-3.72,0-7.14-.88-9.74-2.75"/>
  <path d="M120.02,23.99c-.94,1.63-2.69,2.75-4.72,2.75-3,0-5.42-2.42-5.42-5.42s2.42-5.42,5.42-5.42c2.03,0,3.78,1.12,4.72,2.75l5.17-2.87c-1.94-3.45-5.66-5.81-9.89-5.81-6.26,0-11.35,5.08-11.35,11.35s5.08,11.35,11.35,11.35c4.27,0,7.96-2.33,9.89-5.81l-5.17-2.87Z"/>
  <path d="M69.01.57h6.47v31.68h-6.47V.57Z"/>
  <path d="M127.74.57v31.68h6.47v-9.5l7.68,9.5h8.29l-9.77-11.29,9.05-10.53h-7.93l-7.32,8.74V.57h-6.47Z"/>
  <path d="M94.73,24.05c-.94,1.54-2.87,2.69-5.05,2.69-3,0-5.42-2.42-5.42-5.42s2.42-5.42,5.42-5.42c2.18,0,4.11,1.21,5.05,2.78v5.36ZM94.73,10.44v2.57c-1.06-1.79-3.69-3.03-6.44-3.03-5.69,0-10.17,5.02-10.17,11.32s4.48,11.38,10.17,11.38c2.75,0,5.39-1.24,6.44-3.03v2.57h6.47V10.44h-6.47Z"/>
  <path class="cls-4" d="M8.02,24.02c0,2.21-1.79,3.99-3.99,3.99S.03,26.23.03,24.02s1.79-3.99,3.99-3.99h3.99v3.99Z"/>
  <path class="cls-4" d="M10.01,24.02c0-2.21,1.79-3.99,3.99-3.99s3.99,1.79,3.99,3.99v9.98c0,2.21-1.79,3.99-3.99,3.99s-3.99-1.79-3.99-3.99v-9.98Z"/>
  <path class="cls-2" d="M14.01,7.99c-2.21,0-3.99-1.79-3.99-3.99S11.8,0,14.01,0s3.99,1.79,3.99,3.99v3.99h-3.99Z"/>
  <path class="cls-2" d="M14.01,10.01c2.21,0,3.99,1.79,3.99,3.99s-1.79,3.99-3.99,3.99H3.99c-2.21,0-3.99-1.79-3.99-3.99s1.79-3.99,3.99-3.99h10.01Z"/>
  <path class="cls-1" d="M30.01,14.01c0-2.21,1.79-3.99,3.99-3.99s3.99,1.79,3.99,3.99-1.79,3.99-3.99,3.99h-3.99v-3.99Z"/>
  <path class="cls-1" d="M28.02,14.01c0,2.21-1.79,3.99-3.99,3.99s-3.99-1.79-3.99-3.99V3.99c0-2.21,1.79-3.99,3.99-3.99s3.99,1.79,3.99,3.99v10.01Z"/>
  <g>
    <path class="cls-3" d="M24.02,30.01c2.21,0,3.99,1.79,3.99,3.99s-1.79,3.99-3.99,3.99-3.99-1.79-3.99-3.99v-3.99h3.99Z"/>
    <path class="cls-3" d="M24.02,28.02c-2.21,0-3.99-1.79-3.99-3.99s1.79-3.99,3.99-3.99h10.01c2.21,0,3.99,1.79,3.99,3.99s-1.79,3.99-3.99,3.99h-10.01Z"/>
  </g>
</svg>