<?xml version="1.0" encoding="UTF-8"?>
<svg id="Layer_1" data-name="Layer 1" xmlns="http://www.w3.org/2000/svg" viewBox="0 0 129.5 37.2">
  <defs>
    <style>
      .cls-1 {
        fill: #fff;
      }
    </style>
  </defs>
  <path class="cls-1" d="M65.8,19.8h-4.1v3.2h4.2c1.1,0,1.7-.8,1.7-1.6s-.6-1.6-1.8-1.6Z"/>
  <path class="cls-1" d="M67.1,15.6c0-.7-.4-1.5-1.7-1.5h-3.8v3h3.8c1.3,0,1.7-.8,1.7-1.5Z"/>
  <path class="cls-1" d="M0,0v37.2h129.5V0H0ZM106.3,10.7h12.5v3.4h-8.6v2.9h6.8v3.1h-6.8v2.9h8.6v3.4h-12.5v-15.7ZM88.2,10.7h3.9v8.9c0,1.7,1,3.3,3.3,3.3s3.3-1.7,3.3-3.3v-8.9h3.9v8.9c0,4.3-2.9,7.1-7.2,7.1s-7.2-2.9-7.2-7.1v-8.9h0ZM74.8,10.7h3.9v12.3h7.9v3.4h-11.8v-15.7ZM42.9,7.6l4.2,8.9h.5l4.2-8.9h4.5l-7.5,15.7h-2.8l-7.5-15.7s4.4,0,4.4,0ZM25.8,26.5h-3.4l-7.8-9.4v9.4h-3.9v-15.8h3.7l7.5,9v-9h3.9v15.8ZM39.9,29.6l-4.2-8.9h-.5l-4.2,8.9h-4.5l7.6-15.7h2.7l7.5,15.8h-4.4v-.1ZM65.6,26.5h-8v-15.8h7.8c3.7,0,5.8,1.5,5.8,4.3s-.7,2.5-1.7,3v.3c1.3.5,2.2,1.8,2.2,3.3,0,3.1-2.2,4.9-6.1,4.9Z"/>
</svg>