<svg width="156" height="40" viewBox="0 0 156 40" fill="none" xmlns="http://www.w3.org/2000/svg">
<g clip-path="url(#clip0_7_215)">
<path d="M42.5403 0.583984H0.582209V7.05258H40.4457V7.05842C41.5997 7.05842 42.521 7.98678 42.521 9.13934V30.8611L42.5158 30.8795C42.5087 32.0269 41.5781 32.9491 40.4364 32.9491H9.10912C7.96224 32.9491 7.0236 32.0195 7.0236 30.8609V22.0856C7.0236 20.9331 7.96224 19.9975 9.10912 19.9975H36.0611V13.5375H7.01127C3.4605 13.5375 0.582031 16.4199 0.582031 19.9796V32.9673C0.582031 36.5294 3.4605 39.416 7.01127 39.416H42.5401C46.094 39.416 48.9683 36.5294 48.9683 32.9673V7.03479C48.9683 3.47314 46.0941 0.583984 42.5403 0.583984Z" fill="#CACBD3"/>
<path d="M66.4317 20.7403H70.7955L68.6339 14.2434H68.574L66.4317 20.7403ZM72.7881 9.75415L77.8148 24.8381C78.4113 26.6784 78.8336 27.1042 79.8812 27.1042H80.9032V29.7597H69.9274V27.1042H70.8275C71.7298 27.1042 72.4802 26.9841 72.4802 26.656C72.4802 26.346 72.4502 26.0146 72.3294 25.5609L71.7019 23.3935H65.5658L65.1991 24.601C64.8708 25.6542 64.749 26.1014 64.749 26.5251C64.749 27.012 65.8051 27.1042 66.623 27.1042H67.4879V29.7597H58.646V27.1042H59.6701C60.723 27.1042 61.1369 26.6784 61.7473 24.8381L66.7697 9.75415H72.7881Z" fill="#CACBD3"/>
<path d="M87.6454 22.6932C87.6454 25.7765 88.335 27.6137 90.0176 27.6137C91.7109 27.6137 92.3951 25.7765 92.3951 22.6932C92.3951 19.6185 91.7109 17.7792 90.0176 17.7792C88.335 17.7792 87.6454 19.6185 87.6454 22.6932ZM82.6477 13.4669C82.6477 12.6144 82.4381 12.1671 81.5658 12.1671H80.1836V9.75415H87.6454V17.2634C88.7561 15.9958 90.1727 15.1818 91.5195 15.1818C96.0331 15.1818 97.7146 18.7187 97.7146 22.6932C97.7146 26.6784 96.0331 30.2068 91.5195 30.2068C89.6253 30.2068 87.9393 29.5441 86.8905 27.8839L86.0215 29.7618H82.6477V13.4669Z" fill="#CACBD3"/>
<path d="M104.518 22.6932C104.518 25.7765 105.216 27.6137 106.896 27.6137C108.582 27.6137 109.271 25.7765 109.271 22.6932C109.271 19.6185 108.582 17.7792 106.896 17.7792C105.216 17.7792 104.518 19.6185 104.518 22.6932ZM99.522 13.4669C99.522 12.6144 99.3102 12.1671 98.4466 12.1671H97.0601V9.75415H104.518V17.2634C105.634 15.9958 107.045 15.1818 108.398 15.1818C112.912 15.1818 114.598 18.7187 114.598 22.6932C114.598 26.6784 112.912 30.2068 108.398 30.2068C106.504 30.2068 104.818 29.5441 103.767 27.8839L102.892 29.7618H99.522V13.4669Z" fill="#CACBD3"/>
<path d="M121.365 22.6943C121.365 26.2538 121.996 27.7937 123.801 27.7937C125.604 27.7937 126.233 26.2538 126.233 22.6943C126.233 19.1348 125.604 17.5969 123.801 17.5969C121.996 17.5969 121.365 19.1348 121.365 22.6943ZM131.561 22.6943C131.561 27.5245 128.28 30.2068 123.801 30.2068C119.312 30.2068 116.039 27.5245 116.039 22.6943C116.039 17.8671 119.312 15.1818 123.801 15.1818C128.28 15.1818 131.561 17.8671 131.561 22.6943Z" fill="#CACBD3"/>
<path d="M153.007 22.9388V25.2918C153.007 26.6784 152.709 27.4989 151.565 27.4989C150.874 27.4989 150.546 26.9821 150.546 26.3461V18.0496H154.238V15.6345H150.546V10.0297H147.562C147.319 12.5296 146.539 15.6344 143.532 15.6344H138.841V10.0297H135.866C135.623 12.5296 134.84 15.6344 131.836 15.6344V18.0495H133.85V25.622C133.85 28.7009 135.564 30.2067 138.656 30.2067C142.274 30.2067 143.709 28.5819 143.709 25.622V22.9386H141.311V25.2916C141.311 26.6783 141.007 27.4987 139.867 27.4987C139.169 27.4987 138.841 26.9819 138.841 26.3459V18.0495H145.557V25.622C145.557 28.7009 147.263 30.2067 150.362 30.2067C153.97 30.2067 155.418 28.5819 155.418 25.622V22.9386L153.007 22.9388Z" fill="#CACBD3"/>
</g>
<defs>
<clipPath id="clip0_7_215">
<rect width="156" height="40" fill="white"/>
</clipPath>
</defs>
</svg>
