<svg width="213" height="40" viewBox="0 0 213 40" fill="none" xmlns="http://www.w3.org/2000/svg">
<path d="M55.9578 28.888C55.9578 31.3635 54.9171 32.536 52.8357 32.536C50.7543 32.536 49.7137 31.3633 49.7137 28.888V3.35116H43.8599V28.7576C43.8599 34.6205 47.2421 37.7474 52.8357 37.7474C58.4294 37.7474 61.8115 34.4901 61.8115 28.7576V3.35116H55.9578V28.888ZM16.6726 19.3768C19.5345 18.2041 20.7052 15.2074 20.7052 12.2109C20.7052 6.47809 17.9735 3.22102 11.7294 3.22102H3.01367V37.0957H12.2499C18.8843 37.0957 21.3559 32.9264 21.3559 27.324C21.3559 23.0245 19.5347 20.6792 16.6728 19.3762L16.6726 19.3768ZM8.86744 8.04156H11.0789C13.6806 8.04156 14.8514 9.60502 14.8514 12.8624C14.8514 15.7288 13.1603 17.1618 10.9487 17.1618H8.73725L8.86744 8.04156ZM11.209 32.4058H8.86744V21.9826H10.6886C14.201 21.9826 15.5019 23.6764 15.5019 27.1941C15.5019 30.5816 14.3311 32.4056 11.2092 32.4056L11.209 32.4058ZM72.8698 22.2432H80.4148V17.1618H72.8698V8.43249H82.6263V3.35116H67.0161V37.2258H83.2767V32.1445H72.8698V22.2432ZM31.8939 3.35116H26.1701V37.2258H41.1299V32.1445H32.0239V3.34982L31.8939 3.35116ZM180.062 37.2258H185.916V3.35116H180.062V37.2258ZM166.143 2.82849C160.029 2.82849 157.167 6.73729 157.167 11.5578V29.0168C157.167 33.8376 160.029 37.7461 166.143 37.7461C166.143 37.7461 169.395 37.6158 171.867 35.6615L174.989 37.7461V28.8864V20.157H165.623V24.717H169.785V28.8864V29.0166C169.785 32.795 166.533 32.6646 166.533 32.6646H166.143C163.801 32.6646 163.021 31.492 163.021 28.8863V11.6881C163.021 9.21262 163.801 7.90972 166.143 7.90972C168.484 7.90972 169.265 9.08233 169.265 11.6881V14.2939H175.119V11.5579C175.119 6.7371 172.257 2.82849 166.143 2.82849ZM108.124 2.82849C102.01 2.82849 99.2784 6.73729 99.2784 11.5578V29.0168C99.2784 33.8376 102.14 37.7461 108.254 37.7461C114.368 37.7461 117.23 33.8373 117.23 29.0168V11.5578C117.1 6.73703 114.238 2.82849 108.124 2.82849H108.124ZM111.246 28.8864C111.246 31.3619 110.466 32.6648 108.124 32.6648C105.783 32.6648 105.002 31.4921 105.002 28.8864V11.6882C105.002 9.21273 105.783 7.90982 108.124 7.90982C110.466 7.90982 111.246 9.08244 111.246 11.6882V28.8864ZM204.647 3.34956V23.4141L196.711 3.34956H191.508V37.2242H196.711V17.1597L204.647 37.2242H209.85V3.34956H204.647ZM145.979 37.2242H151.832V3.34956H145.979V37.2242ZM140.125 13.2509C140.125 5.95462 136.873 3.21862 130.238 3.21862H122.043V37.0933H127.897V23.2826C128.937 23.2826 130.108 23.2826 130.888 23.1523L135.051 37.2235H140.905L135.962 21.8494C138.043 20.9374 140.125 18.7225 140.125 13.2502L140.125 13.2509ZM130.108 18.4624H128.027V8.03916H130.108C133.23 8.03916 134.401 9.21177 134.401 13.2506C134.401 17.2896 133.23 18.4624 130.108 18.4624Z" fill="#CACBD3"/>
</svg>
