<svg width="149" height="40" viewBox="0 0 149 40" fill="none" xmlns="http://www.w3.org/2000/svg">
<g clip-path="url(#clip0_7_224)">
<path d="M149 24.9193C148.757 25.8064 148.433 26.6129 147.785 27.2581C145.356 29.5161 140.821 28.629 139.525 25.6452C139.525 25.5645 139.525 25.5645 139.525 25.4032C140.173 25.0806 140.902 24.6774 141.631 24.2742C141.712 24.4355 141.874 24.5968 141.955 24.7581C142.684 25.8871 143.898 26.371 145.113 26.129C145.842 25.9677 146.328 25.4839 146.409 24.8387C146.49 24.1129 146.166 23.629 145.437 23.3064C144.708 22.9839 143.979 22.8226 143.25 22.5C142.845 22.3387 142.36 22.1774 142.036 22.0161C140.821 21.371 140.011 20.4032 140.011 18.9516C140.011 17.5 140.578 16.371 141.874 15.6452C144.141 14.2742 147.38 15.0806 148.757 17.2581C148.838 17.3387 148.919 17.5 149 17.6613C148.271 18.0645 147.623 18.3871 146.894 18.7903C146.57 18.3871 146.247 17.9839 145.923 17.7419C145.194 17.0968 144.384 17.0161 143.493 17.3387C142.522 17.7419 142.279 18.871 143.169 19.5968C143.493 19.9193 143.979 20.0806 144.465 20.2419C144.951 20.4032 145.437 20.5645 145.923 20.7258C147.542 21.2097 148.838 22.0968 149.243 23.871C149 24.2742 149 24.5968 149 24.9193Z" fill="#CACBD3"/>
<path d="M87.2944 28.1451C86.4036 28.1451 85.5128 28.1451 84.6221 28.1451C84.6221 22.0161 84.6221 15.887 84.6221 9.67737C85.5128 9.67737 86.4036 9.67737 87.2944 9.67737C87.2944 11.7741 87.2944 13.8709 87.2944 15.9677C87.2944 16.2903 87.4563 16.6129 87.5373 16.9354C87.7802 16.7741 88.0232 16.6129 88.2661 16.4516C90.4525 14.4354 94.0156 14.5161 96.2829 16.6935C99.1982 19.5161 98.8742 24.9193 95.5541 27.3387C93.2058 29.0322 89.7237 28.7903 87.9422 26.8548C87.8612 26.7741 87.6183 26.6129 87.5373 26.6935C87.3753 26.7741 87.2944 27.0161 87.2944 27.1774C87.2134 27.4193 87.2944 27.7419 87.2944 28.1451ZM95.5541 21.7741C95.5541 19.3548 93.6916 17.4999 91.3433 17.4999C88.9949 17.4999 87.1324 19.4354 87.1324 21.7741C87.1324 24.1935 88.9949 26.0483 91.3433 26.129C93.6916 26.0483 95.5541 24.1935 95.5541 21.7741Z" fill="#CACBD3"/>
<path d="M39.5983 9.67737C40.4891 9.67737 41.3798 9.67737 42.2706 9.67737C42.2706 15.8064 42.2706 21.9354 42.2706 28.0645C41.3798 28.0645 40.5701 28.0645 39.5983 28.0645C39.5983 27.7419 39.5983 27.3387 39.5983 26.9354C39.5983 26.7741 39.5173 26.5322 39.3554 26.5322C39.2744 26.4516 39.0315 26.6129 38.9505 26.6935C37.3309 28.387 35.3065 28.7903 33.1201 28.1451C30.7717 27.5 29.3951 25.8064 28.8282 23.5483C28.0184 20.4838 29.2331 17.3387 31.7434 15.8064C34.0918 14.3548 37.007 14.6774 38.9505 16.5322C39.0315 16.6129 39.2744 16.6935 39.4364 16.6935C39.5173 16.5322 39.5983 16.2903 39.5983 16.129C39.5983 14.1129 39.5983 12.0967 39.5983 10.1612C39.5983 10.0806 39.5983 9.9193 39.5983 9.67737ZM39.6793 21.7741C39.6793 19.3548 37.8978 17.4999 35.5494 17.4193C33.201 17.4193 31.3385 19.2741 31.3385 21.6935C31.3385 24.1129 33.201 26.0483 35.5494 26.0483C37.8168 26.0483 39.6793 24.1935 39.6793 21.7741Z" fill="#CACBD3"/>
<path d="M1.53853 14.6774C2.67223 15.3226 3.72495 15.8871 4.77766 16.4516C6.72114 17.5806 8.66462 18.629 10.6081 19.758C10.932 19.9193 11.1749 19.9193 11.4989 19.758C14.657 17.9838 17.8152 16.2096 20.9733 14.4355C21.7021 14.0322 21.8641 14.1129 21.8641 15C21.8641 16.0484 21.8641 17.0161 21.8641 18.0645C21.8641 18.3871 21.7831 18.5484 21.5402 18.7097C18.1391 20.5645 14.819 22.5 11.4989 24.3548C11.1749 24.5161 10.932 24.4355 10.6891 24.2742C7.77386 22.6613 4.85864 21.0484 1.94342 19.4355C1.70049 19.3548 1.53853 19.1935 1.21462 19.0322C1.21462 19.8387 1.21462 20.6451 1.21462 21.3709C1.21462 21.5322 1.37658 21.6129 1.53853 21.6935C4.61571 23.3871 7.69288 25.1613 10.7701 26.8548C11.094 27.0161 11.2559 26.9355 11.4989 26.7742C14.657 25 17.8152 23.2258 21.0543 21.4516C21.7831 21.0484 21.8641 21.129 21.8641 21.9355C21.8641 22.9838 21.8641 24.0322 21.8641 25.0806C21.8641 25.2419 21.7021 25.5645 21.5402 25.6451C18.1391 27.5806 14.819 29.4355 11.4179 31.2903C11.2559 31.3709 10.932 31.3709 10.7701 31.2903C7.36897 29.4355 4.04886 27.5 0.647772 25.6451C0.24288 25.4032 0.24288 25.1613 0.404837 24.8387C0.566793 24.5161 0.809728 24.758 1.05266 24.8387C4.21082 26.6129 7.36897 28.3871 10.6081 30.1613C10.932 30.3226 11.2559 30.4032 11.5798 30.1613C14.576 28.4677 17.5722 26.7742 20.5684 25.0806C20.8114 24.9193 20.9733 24.758 20.9733 24.4355C20.9733 23.7903 20.9733 23.0645 20.9733 22.3387C20.7304 22.5 20.4874 22.5806 20.3255 22.6613C17.4103 24.2742 14.4141 25.9677 11.4989 27.5806C11.1749 27.7419 10.932 27.7419 10.6081 27.5806C7.28799 25.9677 4.04886 24.1129 0.72875 22.258C0.404837 22.0967 0.24288 21.9355 0.323859 21.5322C0.323859 20.4838 0.323859 19.4355 0.323859 18.3871C0.323859 17.6613 0.485815 17.5806 1.13364 17.9838C4.29179 19.758 7.53092 21.5322 10.6891 23.3064C11.013 23.4677 11.2559 23.5484 11.6608 23.3064C14.657 21.6129 17.6532 19.9193 20.5684 18.3064C20.8923 18.1451 21.0543 17.9032 21.0543 17.5C21.0543 16.8548 21.0543 16.2097 21.0543 15.4838C20.8114 15.6451 20.6494 15.7258 20.4874 15.8064C17.5722 17.4193 14.576 19.1129 11.6608 20.8064C11.3369 20.9677 11.094 20.9677 10.7701 20.8064C7.28799 18.8709 3.96788 17.0967 0.72875 15.1613C0.566793 15.0806 0.323859 14.8387 0.323859 14.6774C0.323859 14.5161 0.566793 14.2742 0.72875 14.1935C3.96788 12.3387 7.28799 10.5645 10.5271 8.70965C10.932 8.46771 11.2559 8.46771 11.7418 8.70965C14.0902 10.0806 16.4385 11.3709 18.8679 12.7419C19.1108 12.9032 19.4347 12.9838 19.2728 13.3064C19.1108 13.629 18.7869 13.629 18.382 13.4677C16.1146 12.1774 13.8472 10.9677 11.5798 9.67739C11.2559 9.5161 11.013 9.5161 10.6081 9.67739C7.77386 11.2903 4.93962 12.8226 2.10538 14.4355C1.94342 14.4355 1.86245 14.5967 1.53853 14.6774Z" fill="#CACBD3"/>
<path d="M79.5209 15.4032C80.4117 15.4032 81.3024 15.4032 82.1932 15.4032C82.1932 19.6774 82.1932 23.871 82.1932 28.1452C81.3024 28.1452 80.4926 28.1452 79.5209 28.1452C79.5209 27.7419 79.5209 27.4194 79.5209 27.0161C79.5209 26.8549 79.4399 26.6936 79.278 26.6129C79.197 26.5323 78.9541 26.6129 78.8731 26.7742C76.3627 29.9194 70.2084 29.1129 68.7508 23.7097C68.103 21.0484 68.6698 18.629 70.6943 16.6936C73.0426 14.4355 76.9296 14.5968 78.7921 16.6936C78.8731 16.7742 79.116 16.9355 79.278 16.8549C79.3589 16.7742 79.4399 16.5323 79.5209 16.371C79.5209 16.0484 79.5209 15.7258 79.5209 15.4032ZM75.472 26.0484C77.8204 26.0484 79.6829 24.1129 79.6829 21.7742C79.6829 19.3549 77.8204 17.5 75.472 17.4194C73.1236 17.4194 71.2611 19.3549 71.2611 21.7742C71.2611 24.1936 73.1236 26.0484 75.472 26.0484Z" fill="#CACBD3"/>
<path d="M55.0651 15.4033C55.9559 15.4033 56.8466 15.4033 57.7374 15.4033C57.7374 19.6775 57.7374 23.871 57.7374 28.1452C56.8466 28.1452 56.0369 28.1452 55.0651 28.1452C55.0651 27.742 55.0651 27.4194 55.0651 27.0162C55.0651 26.8549 54.9841 26.6936 54.8222 26.6129C54.7412 26.5323 54.4983 26.6936 54.4173 26.7742C50.6923 30.0807 45.5097 28.4678 44.295 23.6291C43.4852 20.6452 44.6999 17.4194 47.2102 15.9678C49.4776 14.5968 52.7977 14.9194 54.4173 16.7742C54.4983 16.8549 54.7412 16.9355 54.8222 16.9355C54.9032 16.8549 55.0651 16.6936 55.0651 16.5323C55.0651 16.1291 55.0651 15.8065 55.0651 15.4033ZM50.9352 26.0484C53.2836 26.0484 55.1461 24.1129 55.1461 21.7742C55.1461 19.3549 53.2836 17.5 50.9352 17.4194C48.5869 17.4194 46.7244 19.2742 46.7244 21.7742C46.8053 24.1936 48.5869 26.0484 50.9352 26.0484Z" fill="#CACBD3"/>
<path d="M130.294 28.1451C129.322 28.1451 128.512 28.1451 127.622 28.1451C127.622 22.0161 127.622 15.887 127.622 9.67737C128.512 9.67737 129.403 9.67737 130.294 9.67737C130.294 9.9193 130.294 10.0806 130.294 10.2419C130.294 13.2258 130.294 16.2096 130.294 19.1935C130.294 19.3548 130.294 19.4354 130.294 19.5967C130.375 19.758 130.375 19.9999 130.537 20.0806C130.618 20.1612 130.861 19.9999 131.023 19.9193C131.751 19.1935 132.48 18.4677 133.209 17.7419C133.938 17.0161 134.667 16.2903 135.315 15.5645C135.395 15.4838 135.557 15.3225 135.719 15.3225C136.691 15.3225 137.663 15.3225 138.716 15.3225C138.797 15.4032 138.797 15.4838 138.878 15.5645C138.716 15.6451 138.473 15.7258 138.392 15.8064C136.853 17.3387 135.395 18.8709 133.857 20.3225C133.452 20.7258 133.452 20.9677 133.776 21.3709C135.557 23.4677 137.339 25.5645 139.04 27.7419C139.12 27.8225 139.201 27.9838 139.363 28.1451C138.23 28.1451 137.258 28.1451 136.205 28.1451C136.043 28.1451 135.881 27.9838 135.8 27.8225C134.424 26.129 133.128 24.5161 131.751 22.8225C131.59 22.6612 131.185 22.3387 131.104 22.4193C130.78 22.6612 130.375 22.8225 130.375 23.387C130.375 24.758 130.375 26.0483 130.375 27.4193C130.294 27.6612 130.294 27.9032 130.294 28.1451Z" fill="#CACBD3"/>
<path d="M125.759 26.5322C122.601 29.2741 118.714 29.0322 116.285 27.0967C114.18 25.4838 113.37 22.4193 114.18 19.6774C114.908 17.0967 117.095 15.4032 119.848 15.0806C121.953 14.8387 123.897 15.4032 125.516 16.6935C125.678 16.7741 125.759 16.9354 125.921 17.0161C125.436 17.4999 124.95 17.9032 124.464 18.387C124.221 18.629 124.059 18.4677 123.897 18.387C122.601 17.5806 121.225 17.258 119.686 17.6612C117.338 18.3064 116.123 20.6451 116.771 23.0645C117.419 25.3225 119.767 26.6128 122.115 25.887C122.844 25.6451 123.492 25.3225 124.302 24.9999C124.788 25.4838 125.274 25.9677 125.759 26.5322Z" fill="#CACBD3"/>
<path d="M61.7053 11.371C62.5961 11.371 63.4868 11.371 64.3776 11.371C64.3776 12.2581 64.3776 13.1452 64.3776 14.0323C64.3776 15.4839 64.1346 15.4032 65.7542 15.4032C66.3211 15.4032 66.8069 15.4032 67.3738 15.4032C67.3738 16.129 67.3738 16.7742 67.3738 17.5806C66.564 17.5806 65.8352 17.5806 65.0254 17.5806C64.3776 17.5806 64.2966 17.6613 64.2966 18.3065C64.2966 20.1613 64.2966 22.0161 64.2966 23.871C64.2966 23.9516 64.2966 24.0323 64.2966 24.1129C64.3776 25.6452 65.0254 26.2097 66.564 26.2097C66.9689 26.2097 67.2928 26.2097 67.7787 26.129C67.7787 26.5323 67.7787 26.9355 67.7787 27.2581C67.7787 27.6613 67.7787 27.9839 67.7787 28.3871C66.483 28.5484 65.1874 28.7097 63.8917 28.3065C62.839 27.9839 62.1912 27.2581 61.8673 26.2097C61.7053 25.5645 61.5433 24.9194 61.5433 24.1936C61.5433 22.2581 61.5433 20.2419 61.5433 18.3065C61.5433 17.6613 61.4624 17.5806 60.8955 17.5806C60.4096 17.5806 59.9238 17.5806 59.3569 17.5806C59.3569 16.8548 59.3569 16.2097 59.3569 15.4032C59.9238 15.4032 60.4097 15.4032 60.9765 15.4032C61.3814 15.4032 61.6243 15.2419 61.6243 14.7581C61.7053 13.629 61.7053 12.5 61.7053 11.371Z" fill="#CACBD3"/>
<path d="M107.215 17.8226C106.811 17.8226 106.487 17.8226 106.163 17.8226C104.381 18.0645 103.086 19.3548 102.843 21.2903C102.762 22.0967 102.762 22.9032 102.762 23.7096C102.762 25.1613 102.762 26.5322 102.762 27.9838C102.762 27.9838 102.762 28.0645 102.681 28.0645C101.79 28.0645 100.98 28.0645 100.089 28.0645C100.089 23.7903 100.089 19.5967 100.089 15.3226C100.98 15.3226 101.871 15.3226 102.762 15.3226C102.762 15.7258 102.762 16.129 102.762 16.5322C102.762 16.6935 102.924 16.9355 103.005 17.0967C103.167 17.0161 103.328 16.9355 103.49 16.7742C104.462 15.4838 105.677 14.9193 107.296 15C107.215 16.0484 107.215 16.8548 107.215 17.8226Z" fill="#CACBD3"/>
<path d="M109.321 15.4032C110.212 15.4032 111.102 15.4032 111.993 15.4032C111.993 19.6774 111.993 23.8709 111.993 28.1451C111.102 28.1451 110.212 28.1451 109.321 28.1451C109.321 23.8709 109.321 19.6774 109.321 15.4032Z" fill="#CACBD3"/>
<path d="M112.317 11.3709C112.317 12.3387 111.588 13.0645 110.616 13.0645C109.725 13.0645 108.997 12.3387 108.997 11.3709C108.997 10.4838 109.725 9.67737 110.616 9.67737C111.507 9.67737 112.317 10.4032 112.317 11.3709Z" fill="#CACBD3"/>
</g>
<defs>
<clipPath id="clip0_7_224">
<rect width="149" height="40" fill="white"/>
</clipPath>
</defs>
</svg>
