<svg width="207" height="40" viewBox="0 0 207 40" fill="none" xmlns="http://www.w3.org/2000/svg">
<path d="M6.33898 38.2634H1.37939V23.149H6.33898C11.5861 23.149 14.3983 25.7205 14.3983 30.6959C14.3983 35.6288 12.0623 38.2634 6.33898 38.2634ZM5.97959 25.4483H4.35335V35.9632H5.94365C10.0407 36.047 11.3615 34.0407 11.3615 30.7166C11.3615 27.0581 9.46568 25.4483 5.97959 25.4483Z" fill="#CACBD3"/>
<path d="M18.9444 31.8874C19.0252 30.5075 19.6991 29.2321 21.2534 29.2321C22.7629 29.2321 23.5086 30.3605 23.4457 31.8874H18.9444ZM21.3433 27.4556C17.381 27.4556 16.0063 30.2776 16.0063 32.932C16.0063 36.0894 17.5877 38.4509 20.9659 38.5554C23.6524 38.577 26.0333 37.7613 26.1951 34.814H23.4457C23.4457 36.0056 22.4844 36.7789 21.3613 36.7789C19.4655 36.7789 18.8635 35.3782 18.8365 33.6639L26.4287 33.6432C26.6533 30.5075 25.2966 27.4556 21.3433 27.4556Z" fill="#CACBD3"/>
<path d="M38.6212 38.2634H35.782L35.7641 36.5491C35.2879 37.9074 33.9671 38.5978 32.3499 38.5978C30.4271 38.5978 28.6122 37.4269 28.5942 34.6256V27.8314H31.4694V34.2281C31.4514 35.7334 32.0354 36.5698 33.446 36.5905C34.7218 36.5905 35.7641 35.8586 35.7641 33.8316V27.8314H38.6212V38.2634Z" fill="#CACBD3"/>
<path d="M42.3049 27.8738V26.2216L45.0812 24.7588V27.8738H47.7317V29.9009H45.0812V34.9393C45.0812 35.9632 45.4316 36.549 46.4738 36.5905C46.8691 36.5905 47.2285 36.632 47.7496 36.4859V38.2841C46.3929 38.4725 44.8296 38.8276 43.5358 38.1372C42.5564 37.6153 42.3049 36.6951 42.3049 35.2322V29.9009H40.0767V27.8738H42.3049Z" fill="#CACBD3"/>
<path d="M58.5224 33.7685C58.9807 34.6887 58.9627 35.901 58.3966 36.7375C57.4173 38.2418 55.2879 38.6185 53.6437 38.5771C51.3077 38.4301 49.2322 37.8245 49.331 35.0231H52.1702C52.1433 36.2354 52.898 36.6744 53.9761 36.7158C55.0184 36.7158 56.0606 36.3607 56.0606 35.399C56.0606 34.6256 55.3328 34.2913 54.3984 34.0821C53.3292 33.8523 52.5655 33.7478 51.3706 33.2664C50.4182 32.8068 49.4748 32.0334 49.4748 30.5706C49.4748 29.3574 50.4182 28.438 51.6491 27.936C52.4757 27.5809 53.5 27.4763 54.3805 27.4763C56.3571 27.4763 58.5045 28.1658 58.3787 30.6742H55.7102C55.7102 30.2984 55.6293 29.8802 55.3149 29.6296C54.7309 29.1068 52.9339 29.0437 52.3769 29.9009C51.7479 31.3646 53.6886 31.4692 55.836 32.0542C57.1927 32.3678 58.1091 32.9321 58.5224 33.7685Z" fill="#CACBD3"/>
<path d="M65.6295 27.434C67.9027 27.434 70.2567 28.4795 70.2567 31.3439L67.4624 31.3223C67.4624 29.9847 66.7347 29.169 65.36 29.2321C65.0006 29.2528 64.6232 29.3781 64.3178 29.5458C63.4552 30.0478 63.1857 31.4485 63.1857 32.8491C63.1857 34.3327 63.5451 35.7757 64.192 36.2976C64.6232 36.7158 65.3959 36.842 66.0608 36.7158C67.1659 36.5283 67.4984 35.4404 67.5253 34.5004L70.2567 34.4796C70.2926 37.4684 67.8577 38.5978 65.3151 38.5554C61.9188 38.4301 60.3555 36.2147 60.3555 32.932C60.3555 29.6089 62.2513 27.434 65.6295 27.434Z" fill="#CACBD3"/>
<path d="M72.458 23.1698H75.3331V29.4827C76.0879 28.1451 77.211 27.5602 78.7294 27.5602C80.6521 27.5602 82.467 29.0023 82.467 31.0717V38.2634H79.6279V31.8658C79.6279 30.4444 79.0259 29.5043 77.6692 29.5043C76.4023 29.5043 75.3152 30.3399 75.3152 32.2633V38.2634H72.458V23.1698Z" fill="#CACBD3"/>
<path d="M87.6333 31.8874C87.7142 30.5075 88.3791 29.2321 89.9424 29.2321C91.4429 29.2321 92.1976 30.3605 92.1347 31.8874H87.6333ZM90.0323 27.4556C86.07 27.4556 84.6953 30.2776 84.6953 32.932C84.6953 36.0894 86.2766 38.4509 89.6549 38.5554C92.3413 38.577 94.7223 37.7613 94.884 34.814H92.1347C92.1347 36.0056 91.1733 36.7789 90.0502 36.7789C88.1544 36.7789 87.5525 35.3782 87.5255 33.6639L95.1176 33.6432C95.3423 30.5075 93.9856 27.4556 90.0323 27.4556Z" fill="#CACBD3"/>
<path d="M112.844 37.8244C111.874 38.1371 110.616 38.2633 109.268 38.2633H103.824V23.1904H109.619C112.207 23.1904 114.911 24.0061 115.019 26.912C115.082 28.7516 113.833 29.9215 112.269 30.4443C113.473 30.758 114.453 31.1131 115.118 32.2425C115.702 33.2456 115.747 34.5841 115.27 35.6918C114.767 36.7374 113.994 37.4269 112.844 37.8244ZM109.619 25.4483H106.681V29.3573H109.664C111.227 29.3573 112.036 28.7093 112.036 27.4339C112.036 26.2423 111.101 25.4483 109.619 25.4483ZM109.915 31.6151L106.681 31.5944V36.0262H109.808C111.892 36.0262 112.557 35.0014 112.557 33.7269C112.557 32.7445 111.847 31.5944 109.915 31.6151Z" fill="#CACBD3"/>
<path d="M121.937 36.7582C120.877 36.6743 120.248 36.1516 120.248 35.1484C120.266 32.9537 123.042 33.1835 124.48 33.1835C124.542 34.9186 124.399 36.7158 121.937 36.7582ZM127.211 30.6958C127.211 28.5633 124.92 27.497 122.269 27.5178C119.745 27.5601 117.912 28.3749 117.876 30.8211H120.643C120.58 29.6918 121.353 29.1068 122.377 29.0861C123.913 29.0861 124.605 29.7963 124.462 31.553C122.934 31.6359 120.895 31.5314 119.376 32.2425C118.271 32.7653 117.417 33.7477 117.417 35.3151C117.417 37.3224 118.81 38.5347 120.85 38.5978C122.314 38.7438 123.976 38.0957 124.623 36.7374L124.731 38.2634H127.211C127.211 35.7334 127.211 33.2457 127.211 30.6958Z" fill="#CACBD3"/>
<path d="M129.979 27.8314H132.854V29.5042C133.608 28.145 134.983 27.5601 136.528 27.5601C138.253 27.5601 140.023 28.5632 140.023 31.0716V38.2633H137.148V31.8657C137.166 30.5074 136.501 29.5042 135.19 29.5042C133.896 29.5042 132.836 30.3397 132.836 32.2632V38.2633H129.979V27.8314Z" fill="#CACBD3"/>
<path d="M150.086 38.2634L145.71 32.284L149.673 27.8315H153.051L148.945 32.1795L153.779 38.2634H150.086ZM142.799 23.1698H145.63V38.2634H142.799V23.1698Z" fill="#CACBD3"/>
<path d="M169.026 1.38196H205.621V38.2417H169.026V1.38196ZM191.263 10.1122L176.968 29.3582H183.428L197.777 10.1122H191.263ZM174.12 33.1366H200.526V6.48798H174.12V33.1366Z" fill="#CACBD3"/>
</svg>
