<svg width="200" height="40" viewBox="0 0 200 40" fill="none" xmlns="http://www.w3.org/2000/svg">
<g clip-path="url(#clip0_7_362)">
<path d="M23.5246 7.52381L11.7591 15.0476L23.5246 22.5714L11.7591 30.0952L0 22.5119L11.7654 14.9881L0 7.52381L11.7654 0L23.5246 7.52381ZM11.7029 32.4825L23.4683 24.9587L35.2338 32.4825L23.4691 40L11.7037 32.4762L11.7029 32.4825ZM23.5246 22.5119L35.29 14.9881L23.5246 7.52381L35.2346 0L47 7.52381L35.2346 15.0476L47 22.5714L35.2346 30.0952L23.5317 22.5079L23.5246 22.5119Z" fill="#CACBD3"/>
<path d="M56 7.9473H65.3382C71.3021 7.9473 76.221 11.3572 76.221 19.1502V20.7939C76.221 28.6486 71.6095 32.1795 65.5226 32.1795H56V7.9473ZM61.2263 12.3397V27.7516H65.223C68.605 27.7516 70.8804 25.56 70.8804 20.6891V19.4099C70.8804 14.5397 68.4836 12.3474 65.0393 12.3474H61.2263V12.3397ZM78.996 12.5832H83.1772L83.8542 17.1498C84.6534 14.0443 86.6829 12.4006 90.3715 12.4006H91.6632V17.6368H89.5116C85.2689 17.6368 84.2238 19.0978 84.2238 23.239V32.2504H79.059V12.5847H78.9968L78.996 12.5832ZM92.7076 22.8121V22.2727C92.7076 15.6972 96.9502 12.1047 102.731 12.1047C108.633 12.1047 112.753 15.6972 112.753 22.2727V22.8121C112.753 29.2658 108.757 32.7374 102.731 32.7374C96.3362 32.6757 92.7076 29.2666 92.7076 22.8121ZM107.464 22.7504V22.2634C107.464 18.6108 105.62 16.4185 102.668 16.4185C99.7781 16.4185 97.8723 18.4274 97.8723 22.2634V22.7504C97.8723 26.2821 99.7166 28.2987 102.668 28.2987C105.62 28.2371 107.464 26.2898 107.464 22.7504ZM115.458 12.5824H119.761L120.253 16.2967C121.298 13.8 123.512 12.0954 126.77 12.0954C131.813 12.0954 135.132 15.6879 135.132 22.3243V22.8637C135.132 29.3175 131.444 32.7273 126.77 32.7273C123.634 32.7273 121.482 31.3272 120.437 29.0747V39H115.395L115.457 12.5686L115.458 12.5824ZM129.907 22.7504V22.3243C129.907 18.4274 127.878 16.4793 125.172 16.4793C122.282 16.4793 120.377 18.6709 120.377 22.3243V22.6896C120.377 26.1603 122.221 28.3519 125.111 28.3519C128.063 28.2903 129.907 26.4046 129.907 22.7504ZM142.758 28.5954L142.327 32.1879H137.892V6H142.934V16.054C144.041 13.4956 146.255 12.0962 149.39 12.0962C154.125 12.1578 157.63 15.3843 157.63 21.8982V22.5146C157.63 29.0293 154.309 32.7435 149.267 32.7435C145.947 32.6819 143.795 31.1607 142.75 28.6031L142.758 28.5954ZM152.35 22.5077V22.0207C152.35 18.4282 150.382 16.4185 147.615 16.4185C144.787 16.4185 142.819 18.6709 142.819 22.0808V22.5069C142.819 26.1596 144.726 28.291 147.554 28.291C150.567 28.291 152.35 26.4038 152.35 22.5077ZM159.851 22.8121V22.2727C159.851 15.6972 164.094 12.1047 169.874 12.1047C175.777 12.1047 179.897 15.6972 179.897 22.2727V22.8121C179.897 29.2658 175.839 32.7374 169.874 32.7374C163.48 32.6757 159.851 29.2666 159.851 22.8121ZM174.669 22.7504V22.2634C174.669 18.6108 172.825 16.4185 169.874 16.4185C166.983 16.4185 165.078 18.4274 165.078 22.2634V22.7504C165.078 26.2821 166.922 28.2987 169.874 28.2987C172.825 28.2371 174.669 26.2898 174.669 22.7504ZM186.659 22.0199L179.711 12.5824H185.675L189.672 18.4883L193.73 12.5824H199.633L192.562 21.959L200 32.181H194.159L189.609 25.6664L185.173 32.181H179.086L186.65 22.013L186.659 22.0199Z" fill="#CACBD3"/>
</g>
<defs>
<clipPath id="clip0_7_362">
<rect width="200" height="40" fill="white"/>
</clipPath>
</defs>
</svg>
