<svg width="148" height="40" viewBox="0 0 148 40" fill="none" xmlns="http://www.w3.org/2000/svg">
<path d="M28.3996 17.123H16.0014C15.8472 17.123 15.6993 17.1844 15.5903 17.2937C15.4813 17.403 15.42 17.5513 15.42 17.7059V23.7818C15.4209 23.9361 15.4824 24.0838 15.5913 24.1929C15.7001 24.302 15.8475 24.3637 16.0014 24.3646H20.8383V31.9112C20.8383 31.9112 19.7499 32.284 16.7484 32.284C13.2061 32.284 8.26097 30.9861 8.26097 20.0847C8.26097 9.18333 13.4122 7.73975 18.2492 7.73975C22.4371 7.73975 24.2387 8.47848 25.3879 8.83429C25.4707 8.84798 25.5554 8.84357 25.6363 8.82134C25.7172 8.79911 25.7923 8.7596 25.8566 8.70551C25.9208 8.65143 25.9726 8.58406 26.0084 8.50802C26.0442 8.43198 26.0631 8.34907 26.064 8.26499L27.4633 2.38224C27.4656 2.29445 27.4468 2.2074 27.4086 2.12839C27.3704 2.04937 27.3138 1.98071 27.2436 1.92816C26.7772 1.58929 23.9345 0 16.7653 0C8.49081 0 0 3.53101 0 20.5015C0 37.472 9.72117 40 17.9145 40C24.695 40 28.8086 37.0925 28.8086 37.0925C28.8744 37.0408 28.9261 36.9734 28.9592 36.8964C28.9922 36.8194 29.0056 36.7354 28.9979 36.652V17.7059C28.9979 17.6279 28.9823 17.5507 28.9521 17.4788C28.9218 17.407 28.8775 17.342 28.8217 17.2876C28.7659 17.2333 28.6998 17.1907 28.6273 17.1624C28.5548 17.1341 28.4774 17.1207 28.3996 17.123Z" fill="#CACBD3"/>
<path d="M93 1.58624C93.0004 1.5097 92.9855 1.43383 92.9559 1.36294C92.9264 1.29206 92.8829 1.22755 92.8278 1.17311C92.7728 1.11868 92.7073 1.07537 92.6352 1.04567C92.563 1.01596 92.4856 1.00045 92.4073 1H85.2077C85.1291 0.999999 85.0513 1.01519 84.9787 1.04469C84.9062 1.07419 84.8403 1.11743 84.7849 1.17191C84.7295 1.22639 84.6856 1.29105 84.6559 1.36216C84.6261 1.43326 84.611 1.50942 84.6115 1.58624V15.1891H73.3885V1.58624C73.389 1.5097 73.374 1.43383 73.3444 1.36294C73.3149 1.29206 73.2714 1.22755 73.2163 1.17311C73.1613 1.11868 73.0958 1.07537 73.0237 1.04567C72.9515 1.01596 72.8741 1.00045 72.7958 1H65.5962C65.4377 1.0009 65.2861 1.06306 65.1744 1.1729C65.0627 1.28275 65 1.43135 65 1.58624V38.4138C65 38.5687 65.0627 38.7173 65.1744 38.8271C65.2861 38.9369 65.4377 38.9991 65.5962 39H72.7958C72.8741 38.9996 72.9515 38.984 73.0237 38.9543C73.0958 38.9246 73.1613 38.8813 73.2163 38.8269C73.2714 38.7724 73.3149 38.7079 73.3444 38.6371C73.374 38.5662 73.389 38.4903 73.3885 38.4138V22.6568H84.6115L84.5941 38.4138C84.5936 38.4906 84.6087 38.5667 84.6384 38.6378C84.6682 38.709 84.712 38.7736 84.7674 38.8281C84.8229 38.8826 84.8887 38.9258 84.9613 38.9553C85.0339 38.9848 85.1117 39 85.1903 39H92.4073C92.4856 38.9996 92.563 38.984 92.6352 38.9543C92.7073 38.9246 92.7728 38.8813 92.8278 38.8269C92.8829 38.7724 92.9264 38.7079 92.9559 38.6371C92.9855 38.5662 93.0004 38.4903 93 38.4138V1.58624Z" fill="#CACBD3"/>
<path d="M40.9999 6.4527C40.9916 5.56462 40.7499 4.69915 40.3052 3.96531C39.8605 3.23146 39.2328 2.66206 38.501 2.3288C37.7692 1.99555 36.9661 1.91335 36.1929 2.09257C35.4197 2.27178 34.7109 2.70439 34.1558 3.3359C33.6007 3.96742 33.2241 4.7696 33.0735 5.64142C32.9229 6.51324 33.0049 7.41571 33.3093 8.23516C33.6137 9.05462 34.1269 9.75442 34.7841 10.2464C35.4414 10.7384 36.2134 11.0006 37.0028 11C37.5309 10.9973 38.0533 10.8776 38.5401 10.6475C39.0269 10.4174 39.4686 10.0815 39.8399 9.65913C40.2112 9.23674 40.5047 8.73611 40.7038 8.1859C40.9028 7.6357 41.0035 7.04672 40.9999 6.4527Z" fill="#CACBD3"/>
<path d="M41 30.6341V13.5878C41 13.4325 40.9404 13.2835 40.8341 13.1734C40.7278 13.0632 40.5836 13.0009 40.4328 13H33.5937C33.4346 13.0172 33.2869 13.0931 33.1778 13.2137C33.0687 13.3343 33.0055 13.4914 33 13.6562V38.067C33 38.7847 33.4345 39 33.995 39H40.1443C40.8076 39 40.9867 38.6583 40.9867 38.0568L41 30.6341Z" fill="#CACBD3"/>
<path d="M119.411 13H112.393C112.316 13.0005 112.239 13.0163 112.168 13.0466C112.097 13.0769 112.032 13.1211 111.978 13.1766C111.924 13.2321 111.882 13.2979 111.853 13.3701C111.824 13.4423 111.81 13.5195 111.81 13.5973V31.8965C110.528 32.7464 109.029 33.2033 107.495 33.212C104.964 33.212 104.292 32.0554 104.292 29.5556V13.6042C104.293 13.5264 104.279 13.4492 104.25 13.377C104.221 13.3048 104.178 13.239 104.124 13.1835C104.07 13.128 104.006 13.0838 103.935 13.0535C103.864 13.0232 103.787 13.0074 103.71 13.0069H96.5857C96.5083 13.0074 96.4318 13.0232 96.3605 13.0534C96.2892 13.0837 96.2245 13.1278 96.1701 13.1833C96.1157 13.2388 96.0727 13.3045 96.0435 13.3767C96.0143 13.4489 95.9996 13.5262 96 13.6042V30.7641C96 38.1839 100.11 40 105.745 40C110.375 40 114.109 37.4208 114.109 37.4208C114.109 37.4208 114.287 38.7812 114.366 38.9435C114.418 39.037 114.492 39.1156 114.583 39.1718C114.673 39.228 114.777 39.26 114.883 39.2646L119.414 39.2439C119.57 39.2429 119.719 39.18 119.829 39.0687C119.938 38.9574 120 38.8069 120 38.65V13.5973C120.001 13.5189 119.986 13.4411 119.957 13.3685C119.928 13.2958 119.884 13.2297 119.83 13.1741C119.775 13.1185 119.71 13.0745 119.638 13.0446C119.566 13.0147 119.489 12.9995 119.411 13Z" fill="#CACBD3"/>
<path d="M138.046 12.3656C135.681 12.351 133.356 12.9675 131.31 14.1511V1.5906C131.31 1.43455 131.248 1.28485 131.138 1.17419C131.028 1.06353 130.878 1.00091 130.721 1H123.586C123.508 1.00045 123.432 1.01608 123.361 1.04601C123.289 1.07593 123.225 1.11956 123.17 1.1744C123.116 1.22924 123.073 1.29423 123.044 1.36564C123.014 1.43705 123 1.51349 123 1.5906V38.6918C123 38.7692 123.014 38.8459 123.044 38.9175C123.073 38.9892 123.117 39.0543 123.171 39.1092C123.226 39.1641 123.291 39.2076 123.363 39.2373C123.435 39.2671 123.512 39.2824 123.589 39.2824H128.537C128.643 39.2817 128.747 39.2522 128.838 39.1972C128.929 39.1422 129.004 39.0636 129.054 38.9699C129.198 38.4061 129.3 37.8322 129.357 37.253C129.357 37.253 132.272 40 137.795 40C144.279 40 148 36.7208 148 25.2832C148 13.8455 142.064 12.3656 138.046 12.3656ZM135.262 33.2734C133.813 33.2361 132.398 32.8294 131.152 32.0922V20.3386C132.274 19.7011 133.516 19.3002 134.801 19.1609C137.343 18.9342 139.793 19.6999 139.793 25.7433C139.793 32.1162 138.687 33.3764 135.262 33.2734Z" fill="#CACBD3"/>
<path d="M61.3261 14.1529H56.136C56.136 14.1529 56.136 7.38691 56.136 7.38361C56.136 7.12897 56.002 7 55.7004 7H48.6205C48.3458 7 48.1984 7.11905 48.1984 7.3803V14.3745C48.1984 14.3745 44.6534 15.2178 44.4155 15.2872C44.2955 15.3211 44.1899 15.3927 44.1149 15.4912C44.0399 15.5897 43.9996 15.7096 44 15.8329V20.2245C43.9996 20.299 44.0141 20.3729 44.0427 20.4419C44.0713 20.5109 44.1134 20.5736 44.1666 20.6265C44.2199 20.6793 44.2832 20.7213 44.3529 20.7499C44.4227 20.7785 44.4974 20.7933 44.573 20.7933H48.1984V31.3755C48.1984 39.2295 53.7805 40 57.5466 40C58.9428 39.9594 60.3274 39.737 61.6646 39.3386C61.7669 39.2973 61.8539 39.2261 61.9139 39.1344C61.9738 39.0427 62.0037 38.9351 61.9996 38.826V33.9913C61.9979 33.8412 61.9372 33.6977 61.8303 33.5909C61.7234 33.4842 61.5787 33.4226 61.4267 33.4192C61.1218 33.4192 60.3478 33.5415 59.5537 33.5415C57.0038 33.5415 56.1394 32.3709 56.1394 30.8563V20.7966H61.3295C61.4818 20.7957 61.6275 20.7354 61.7348 20.6288C61.8422 20.5222 61.9025 20.3781 61.9025 20.2278V14.7217C61.9025 14.647 61.8876 14.5731 61.8586 14.504C61.8296 14.435 61.7872 14.3723 61.7337 14.3195C61.6801 14.2667 61.6166 14.2248 61.5467 14.1962C61.4768 14.1676 61.4018 14.1529 61.3261 14.1529Z" fill="#CACBD3"/>
</svg>
