<svg width="123" height="40" viewBox="0 0 123 40" fill="none" xmlns="http://www.w3.org/2000/svg">
<g clip-path="url(#clip0_11_385)">
<path fill-rule="evenodd" clip-rule="evenodd" d="M22.3243 0.236834C21.5125 0.363951 20.3205 0.608 19.6755 0.779288C11.1298 3.04763 4.46948 9.70039 2.58229 17.8528C2.23211 19.3655 2.08967 21.1851 2.11636 23.8037C2.13937 26.0606 2.1219 26.2659 1.80813 27.4233C1.50838 28.5291 0.933473 29.8625 0.248363 31.041C-0.266392 31.9264 0.0161393 33.3213 0.852293 34.0231C1.38218 34.4679 1.8299 34.5708 3.56678 34.647C5.93724 34.7509 7.84816 35.3755 9.9538 36.7343C15.4102 40.2554 22.2502 40.9651 28.819 38.6914C36.0225 36.1983 41.7852 30.2982 43.7793 23.3743C44.3579 21.3651 44.5206 19.9473 44.5257 16.8712C44.5303 13.9961 44.6225 13.2706 45.2041 11.5282C45.3745 11.0179 45.7648 10.1616 46.0715 9.62542C46.935 8.11548 46.9269 7.22739 46.0407 6.24886C45.4526 5.59953 44.8639 5.42653 42.9883 5.35144C40.5264 5.25291 39.2624 4.82051 36.4331 3.10923C33.9844 1.628 32.1714 0.928613 29.3092 0.361006C27.3956 -0.0185033 24.3058 -0.0734726 22.3243 0.236834ZM112.333 3.61389C108.561 4.4669 106.149 7.53205 106.149 11.4724C106.149 15.2075 108.262 18.0182 111.93 19.1605C112.724 19.408 113.1 19.447 114.636 19.442C116.305 19.4365 116.49 19.4116 117.526 19.0539C119.089 18.5145 119.728 18.1249 120.815 17.0491C122.371 15.5087 123 13.8916 123 11.4336C123 7.63156 121.19 5.12665 117.465 3.77303C116.57 3.44775 113.49 3.35229 112.333 3.61389ZM54.0815 3.76002C54.0349 3.80653 53.9968 7.28628 53.9968 11.4929V19.1411H56.2723H58.5478V16.3804V13.6197H58.9791C59.7211 13.6197 61.7687 13.2724 62.8226 12.9679L63.8327 12.6761L63.8656 15.8779L63.8983 19.0798L66.144 19.1133L68.3896 19.1466L68.358 11.4446L68.3263 3.74236H66.1123H63.8983L63.8652 6.45598L63.8321 9.16972L62.8812 9.43058C61.886 9.70371 60.2896 9.99659 59.1956 10.107L58.5518 10.172L58.5191 6.9572L58.4863 3.74236L56.3263 3.70898C55.1382 3.69058 54.1281 3.71352 54.0815 3.76002ZM83.1095 3.76002C83.0629 3.80653 83.0248 7.28628 83.0248 11.4929V19.1411H88.3138H93.6028V17.1779V15.2147H90.5905H87.5782L87.5463 9.47855L87.5143 3.74236L85.3543 3.70898C84.1662 3.69058 83.1562 3.71352 83.1095 3.76002ZM95.1635 3.76002C95.1169 3.80653 95.0788 7.28628 95.0788 11.4929V19.1411H100.368H105.657V17.1779V15.2147H102.645H99.6322L99.6003 9.47855L99.5683 3.74236L97.4083 3.70898C96.2202 3.69058 95.2102 3.71352 95.1635 3.76002ZM70.2328 11.4724V19.1411H75.7678H81.3028V17.362V15.5828H77.9203H74.5378V14.1718V12.7608H77.4283H80.3188V11.2884V9.81597H77.4283H74.5378V8.52763V7.23929H77.9818H81.4258V5.5215V3.80371H75.8293H70.2328V11.4724ZM113.268 7.40874C112.208 7.7869 111.36 8.55867 110.902 9.56432C110.697 10.0144 110.647 10.3727 110.646 11.4111C110.644 12.5464 110.682 12.7817 110.967 13.3933C111.624 14.8035 112.895 15.5922 114.519 15.5973C115.545 15.6005 116.138 15.4458 116.866 14.9853C118.076 14.2198 118.627 12.9871 118.546 11.227C118.462 9.40567 117.78 8.30334 116.296 7.59291C115.68 7.29769 115.406 7.24039 114.636 7.24481C114.128 7.24763 113.513 7.3215 113.268 7.40874ZM98.5441 20.4968C96.4089 20.7819 94.771 21.8745 93.995 23.5316C93.7048 24.1513 93.6664 24.3835 93.6654 25.5215C93.6644 26.689 93.6958 26.8695 94.0002 27.4454C94.4164 28.2327 95.444 29.0909 96.4018 29.4511C96.7903 29.5972 97.7171 29.85 98.4613 30.0128C101.693 30.7194 101.952 30.8 102.386 31.2329C102.608 31.4543 102.646 32.1669 102.455 32.523C102.385 32.6534 102.094 32.8839 101.809 33.0356C101.059 33.4341 99.345 33.4296 98.4468 33.0268C97.6962 32.6902 97.0842 32.0943 96.8798 31.5012L96.731 31.0698L95.0131 31.9912C94.0683 32.4979 93.2724 32.9334 93.2446 32.9588C93.1503 33.0449 93.4447 33.5555 93.9088 34.1105C94.7109 35.0697 95.9172 35.7986 97.4975 36.2788C98.5297 36.5925 101.721 36.5898 102.766 36.2743C105.81 35.3561 107.473 33.0982 107.004 30.5203C106.825 29.5376 106.538 28.9976 105.866 28.3792C104.943 27.5305 104.062 27.1993 101.178 26.6157C99.1801 26.2114 98.6781 26.0446 98.2876 25.655C98.0068 25.3749 97.9499 24.7973 98.1637 24.3987C98.5035 23.7654 100.032 23.4981 101.146 23.8768C101.754 24.0833 102.459 24.7842 102.459 25.1814C102.459 25.4893 102.624 25.4562 103.51 24.9709C103.939 24.7355 104.625 24.3732 105.035 24.1654C105.445 23.9578 105.78 23.7136 105.78 23.6228C105.78 23.3795 104.9 22.3114 104.326 21.8578C102.97 20.7871 100.582 20.2248 98.5441 20.4968ZM53.9968 28.6503V36.319H56.2723H58.5478V33.6836V31.048L61.0385 31.0149L63.5293 30.9816L63.5636 29.3559L63.5979 27.7301H61.0728H58.5478V26.2577V24.7853H61.6843H64.8208V22.8835V20.9816H59.4088H53.9968V28.6503ZM66.1738 28.6503V36.319H68.4493H70.7248V33.681V31.043L71.1245 31.0435C71.4933 31.0438 71.5574 31.1078 71.9509 31.8668C72.3897 32.7134 73.1773 33.7346 73.968 34.4825C75.123 35.5749 77.2011 36.4417 78.6647 36.4417H79.4578V34.4947V32.5476L78.9578 32.4808C77.9007 32.3393 76.6881 31.4722 76.1637 30.4828C76.0413 30.2519 76.0962 30.1979 76.7841 29.872C77.8615 29.3616 78.6024 28.732 79.0273 27.9659C79.3718 27.3448 79.3963 27.2147 79.3963 26.0065C79.3963 24.7747 79.3759 24.6723 78.9729 23.8797C78.4801 22.9105 77.7803 22.2436 76.7016 21.7151C75.4165 21.0857 74.4805 20.9816 70.099 20.9816H66.1738V28.6503ZM81.0866 28.6197L81.1183 36.2577L86.684 36.2896L92.2498 36.3215V34.5411V32.7608H88.8673H85.4848V31.3804L85.4847 30H88.283H91.0813L91.1158 28.497L91.1504 26.9939H88.3176H85.4848V25.7055V24.4172H88.7443H92.0038V22.6994V20.9816H86.5293H81.0549L81.0866 28.6197ZM108.363 28.6503V36.319H110.638H112.914V33.5765V30.8339L113.867 30.7593C114.94 30.6752 116.891 30.2933 117.68 30.0128L118.203 29.8269V33.0729V36.319H120.478H122.754V28.6503V20.9816H120.478H118.203V23.6762V26.3709L117.742 26.4941C116.122 26.9267 113.748 27.362 113.009 27.362C112.957 27.362 112.914 25.9264 112.914 24.1718V20.9816H110.638H108.363V28.6503ZM70.7248 26.0873V28.0026L72.047 27.9523C73.1118 27.9118 73.472 27.8485 73.8968 27.627C74.5802 27.2709 74.9057 26.7356 74.9063 25.9671C74.9068 25.4397 74.8525 25.3159 74.4427 24.907C73.8645 24.3302 73.3136 24.1734 71.8625 24.1725L70.7248 24.1718V26.0873Z" fill="#CACBD3"/>
</g>
<defs>
<clipPath id="clip0_11_385">
<rect width="123" height="40" fill="white"/>
</clipPath>
</defs>
</svg>
