<svg width="159" height="40" viewBox="0 0 159 40" fill="none" xmlns="http://www.w3.org/2000/svg">
<g clip-path="url(#clip0_11_457)">
<path d="M11.8778 4.1215C10.3215 2.28013 8.98141 0.409993 8.70763 0.0215786C8.67881 -0.00719285 8.63556 -0.00719285 8.60675 0.0215786C8.33296 0.409993 6.99284 2.28013 5.43656 4.1215C-7.92142 21.1109 7.54043 32.5764 7.54043 32.5764L7.67011 32.6627C7.78538 34.4321 8.07358 36.9784 8.07358 36.9784H8.64998H9.22637C9.22637 36.9784 9.51458 34.4465 9.62986 32.6627L9.75954 32.562C9.77394 32.5764 25.2358 21.1109 11.8778 4.1215ZM8.64998 32.3174C8.64998 32.3174 7.95831 31.7276 7.77098 31.4256V31.3967L8.60675 12.8968C8.60675 12.8392 8.69322 12.8392 8.69322 12.8968L9.52898 31.3967V31.4256C9.34166 31.7276 8.64998 32.3174 8.64998 32.3174Z" fill="#CACBD3"/>
<path d="M37.5861 28.5423L31.143 12.8491L31.1286 12.8058H26.1156V13.8607H26.9246C27.1702 13.8607 27.4013 13.9618 27.5748 14.1352C27.748 14.3086 27.8348 14.5399 27.8348 14.7855L27.6903 30.5799C27.6903 31.0711 27.2859 31.4757 26.7946 31.4902L25.9712 31.5046V32.5451H30.8542V31.5046L30.3485 31.4902C29.8573 31.4757 29.4527 31.0711 29.4527 30.5799V15.6959L36.4739 32.5451C36.5748 32.7907 36.806 32.9497 37.0661 32.9497C37.3261 32.9497 37.5573 32.7907 37.6584 32.5451L44.5205 16.0715L44.6217 30.5799C44.6217 31.0856 44.2171 31.4902 43.7115 31.5046H43.1914V32.5451H48.9122V31.5046H48.1321C47.6409 31.5046 47.2364 31.0856 47.2219 30.5943L47.1786 14.7999C47.1786 14.2942 47.5831 13.8896 48.0744 13.8751L48.9122 13.8607V12.8058H44.0292L37.5861 28.5423Z" fill="#CACBD3"/>
<path d="M82.511 31.2297C82.3516 31.0705 82.2647 30.8534 82.2647 30.5928V22.834C82.2647 21.3576 81.8303 20.1994 80.9611 19.3744C80.1067 18.5492 78.9189 18.1295 77.4416 18.1295C75.3703 18.1295 73.7337 18.9691 72.5894 20.6193C72.5749 20.6482 72.5315 20.6628 72.4881 20.6628C72.4445 20.6628 72.4156 20.6337 72.4156 20.5904L71.8796 18.5203H70.9816L68.6787 19.8376V20.5613H69.2726C69.5477 20.5613 69.7794 20.6337 69.9389 20.7786C70.0982 20.9233 70.185 21.1405 70.185 21.4443V30.5783C70.185 30.8389 70.0982 31.056 69.9389 31.2153C69.7794 31.3744 69.5623 31.4613 69.3016 31.4613H68.7221V32.518H74.0232V31.4613H73.444C73.1832 31.4613 72.9659 31.3744 72.8066 31.2153C72.6474 31.056 72.5604 30.8389 72.5604 30.5783V24.5276C72.5604 23.7605 72.7342 22.9933 73.0529 22.2405C73.3859 21.5023 73.8784 20.8799 74.5303 20.4022C75.182 19.9245 75.9641 19.6928 76.8622 19.6928C77.876 19.6928 78.6438 20.0112 79.1216 20.6482C79.5996 21.2852 79.8459 22.1102 79.8459 23.0946V30.5639C79.8459 30.8243 79.7589 31.0415 79.5996 31.2007C79.4404 31.36 79.2231 31.4468 78.9623 31.4468H78.383V32.5035H83.6842V31.4468H83.1049C82.8876 31.4758 82.6847 31.3889 82.511 31.2297Z" fill="#CACBD3"/>
<path d="M130.943 13.9874C129.478 13.2092 127.84 12.8058 126.073 12.8058H119.178V13.8577H119.853C120.112 13.8577 120.341 13.9585 120.571 14.1891C120.787 14.4052 120.902 14.6502 120.902 14.9095V30.4143C120.902 30.6736 120.787 30.9186 120.571 31.1347C120.356 31.3508 120.112 31.4661 119.853 31.4661H119.178V32.518H126.073C127.84 32.518 129.478 32.1146 130.943 31.3364C132.409 30.5583 133.601 29.4055 134.463 27.9359C135.325 26.4661 135.77 24.6937 135.77 22.6763C135.77 20.659 135.325 18.901 134.463 17.4169C133.587 15.9183 132.409 14.7799 130.943 13.9874ZM132.998 22.6475C132.998 24.492 132.667 26.0481 132.021 27.3018C131.374 28.5554 130.512 29.492 129.449 30.0973C128.386 30.7025 127.208 31.0051 125.944 31.0051H124.551C124.292 31.0051 124.062 30.9042 123.832 30.6736C123.617 30.4574 123.502 30.2125 123.502 29.9531V15.3275C123.502 15.0681 123.602 14.8376 123.832 14.6069C124.048 14.3908 124.292 14.2756 124.551 14.2756H125.944C127.208 14.2756 128.386 14.5782 129.449 15.1833C130.512 15.7885 131.374 16.7252 132.021 17.9787C132.667 19.2468 132.998 20.8174 132.998 22.6475Z" fill="#CACBD3"/>
<path d="M152.07 23.6995C151.432 22.9645 150.202 22.3449 148.754 22.0134C150.753 21.0192 151.78 19.6215 151.78 17.8203C151.78 16.8405 151.52 15.9615 150.998 15.2121C150.477 14.4629 149.738 13.8577 148.798 13.4398C147.855 13.0219 146.755 12.8058 145.509 12.8058H137.704V13.8577H138.327C138.587 13.8577 138.819 13.9585 139.051 14.1891C139.268 14.4052 139.384 14.6502 139.384 14.9095V30.4143C139.384 30.6736 139.268 30.9186 139.051 31.1347C138.834 31.3508 138.587 31.4661 138.327 31.4661H137.646V32.518H146.118C147.407 32.518 148.609 32.3019 149.695 31.8695C150.782 31.4373 151.65 30.8033 152.273 29.9675C152.91 29.1318 153.229 28.1087 153.229 26.9271C153.214 25.659 152.838 24.5783 152.07 23.6995ZM142.353 30.6879C142.135 30.4718 142.02 30.2269 142.02 29.9675V23.0077H146.046C147.464 23.0077 148.551 23.3679 149.304 24.0884C150.057 24.809 150.434 25.7455 150.434 26.8983C150.434 27.59 150.259 28.2672 149.942 28.8868C149.609 29.5209 149.115 30.0252 148.45 30.4143C147.798 30.8033 146.987 31.0051 146.046 31.0051H143.077C142.816 31.0051 142.584 30.9042 142.353 30.6879ZM142.034 21.5235V15.3419C142.034 15.0825 142.135 14.852 142.367 14.6213C142.584 14.4052 142.831 14.29 143.091 14.29H145.003C146.378 14.29 147.392 14.6359 148.03 15.2986C148.666 15.9759 148.985 16.8405 148.985 17.9068C148.985 19.0019 148.681 19.8809 148.088 20.5436C147.493 21.1921 146.596 21.5235 145.408 21.5235H142.034Z" fill="#CACBD3"/>
<path d="M62.3301 19.0487C61.2235 18.4455 59.9875 18.1295 58.651 18.1295C57.3145 18.1295 56.0642 18.4311 54.972 19.0487C53.8653 19.6517 52.9887 20.5276 52.342 21.6334C51.6953 22.7392 51.3647 24.0317 51.3647 25.4676C51.3647 26.9036 51.6953 28.1961 52.342 29.3019C52.9887 30.4076 53.8653 31.2836 54.972 31.8868C56.0786 32.4898 57.3145 32.8058 58.651 32.8058C59.9875 32.8058 61.2379 32.5042 62.3301 31.8868C63.4368 31.2836 64.3134 30.4076 64.9601 29.3019C65.6068 28.1961 65.9373 26.9036 65.9373 25.4676C65.9373 24.0317 65.6068 22.7392 64.9601 21.6334C64.3134 20.5276 63.4368 19.6517 62.3301 19.0487ZM63.3936 25.4676C63.3936 27.234 62.9625 28.6699 62.1001 29.7039C61.2523 30.7379 60.0882 31.2692 58.651 31.2692C57.214 31.2692 56.0498 30.7379 55.202 29.7039C54.3396 28.6699 53.9085 27.234 53.9085 25.4676C53.9085 23.7013 54.3396 22.2653 55.202 21.2314C56.0498 20.1974 57.214 19.6661 58.651 19.6661C60.0882 19.6661 61.2523 20.1974 62.1001 21.2314C62.9625 22.2653 63.3936 23.7013 63.3936 25.4676Z" fill="#CACBD3"/>
<path d="M113.262 19.0487C112.156 18.4455 110.92 18.1295 109.583 18.1295C108.247 18.1295 106.996 18.4311 105.904 19.0487C104.797 19.6517 103.921 20.5276 103.274 21.6334C102.627 22.7392 102.297 24.0317 102.297 25.4676C102.297 26.9036 102.627 28.1961 103.274 29.3019C103.921 30.4076 104.797 31.2836 105.904 31.8868C107.011 32.4898 108.247 32.8058 109.583 32.8058C110.92 32.8058 112.17 32.5042 113.262 31.8868C114.369 31.2836 115.246 30.4076 115.892 29.3019C116.539 28.1961 116.869 26.9036 116.869 25.4676C116.869 24.0317 116.539 22.7392 115.892 21.6334C115.246 20.5276 114.354 19.6517 113.262 19.0487ZM114.326 25.4676C114.326 27.234 113.895 28.6699 113.032 29.7039C112.184 30.7379 111.02 31.2692 109.583 31.2692C108.146 31.2692 106.982 30.7379 106.134 29.7039C105.272 28.6699 104.841 27.234 104.841 25.4676C104.841 23.6869 105.272 22.2653 106.134 21.2314C106.982 20.1974 108.146 19.6661 109.583 19.6661C111.02 19.6661 112.184 20.1974 113.032 21.2314C113.88 22.2653 114.326 23.7013 114.326 25.4676Z" fill="#CACBD3"/>
<path d="M92.7221 18.1295C91.564 18.1295 90.5076 18.3747 89.5523 18.8652C88.597 19.3557 87.8444 20.0194 87.3088 20.8705C86.7734 21.7072 86.4984 22.6451 86.4984 23.6405C86.4984 24.5348 86.701 25.3571 87.1207 26.093C87.526 26.7999 88.076 27.3912 88.7707 27.8817L86.701 30.6806C86.4404 31.0268 86.4115 31.4884 86.5997 31.8635C86.8023 32.253 87.1785 32.4839 87.6128 32.4839H88.2063C87.6273 32.8734 87.1641 33.335 86.8457 33.8832C86.4694 34.5035 86.2812 35.1527 86.2812 35.8163C86.2812 37.057 86.8313 38.0813 87.9167 38.8459C88.9879 39.6105 90.493 40 92.389 40C93.7062 40 94.9654 39.7836 96.1088 39.3652C97.2667 38.9469 98.2074 38.3265 98.9021 37.5187C99.6114 36.7108 99.9733 35.7298 99.9733 34.6045C99.9733 33.4216 99.539 32.5848 98.5258 31.777C97.6575 31.0989 96.297 30.7383 94.6035 30.7383H88.8141C88.7997 30.7383 88.7851 30.7238 88.7851 30.7238C88.7851 30.7238 88.7707 30.695 88.7851 30.6806L90.2904 28.6609C90.6957 28.8484 91.072 28.9638 91.4049 29.0358C91.7522 29.1081 92.143 29.1369 92.5772 29.1369C93.7931 29.1369 94.8931 28.8917 95.8482 28.4012C96.8035 27.9107 97.5707 27.2471 98.1207 26.3958C98.6706 25.5592 98.9456 24.6215 98.9456 23.6261C98.9456 22.5584 98.4245 20.6108 97.0061 19.6154C97.0061 19.601 97.0207 19.601 97.0207 19.601L100.132 19.9472V18.519H95.1535C94.3719 18.2738 93.5615 18.1295 92.7221 18.1295ZM94.4588 27.1605C93.9088 27.4489 93.3153 27.6076 92.7221 27.6076C91.7523 27.6076 90.8983 27.2615 90.1746 26.5835C89.451 25.9053 89.0891 24.9099 89.0891 23.6405C89.0891 22.371 89.451 21.3754 90.1746 20.6974C90.8983 20.0194 91.7523 19.6731 92.7221 19.6731C93.3299 19.6731 93.9088 19.8174 94.4588 20.1203C95.0088 20.4089 95.4575 20.8561 95.8194 21.4476C96.1667 22.0392 96.3548 22.7748 96.3548 23.6405C96.3548 24.5205 96.1811 25.2561 95.8194 25.8333C95.4719 26.4248 95.0088 26.872 94.4588 27.1605ZM90.5364 32.4694H94.4588C95.5444 32.4694 96.2391 32.6858 96.7022 33.1475C97.1654 33.6091 97.397 34.2294 97.397 34.9508C97.397 36.0039 96.9773 36.8695 96.1378 37.5187C95.2982 38.1679 94.1694 38.4997 92.7799 38.4997C91.564 38.4997 90.5509 38.2256 89.8127 37.7062C89.0746 37.1869 88.6983 36.3934 88.6983 35.3836C88.6983 34.7488 88.872 34.1573 89.2194 33.638C89.5667 33.1186 89.9864 32.7435 90.5364 32.4694Z" fill="#CACBD3"/>
<path d="M156.165 32.2773C155.879 32.1215 155.664 31.8949 155.492 31.6258C155.335 31.3426 155.249 31.0452 155.249 30.7195C155.249 30.3937 155.335 30.0822 155.492 29.8131C155.65 29.5298 155.879 29.3174 156.165 29.1616C156.452 29.0059 156.766 28.9209 157.124 28.9209C157.482 28.9209 157.797 29.0059 158.084 29.1616C158.369 29.3174 158.584 29.5441 158.756 29.8131C158.913 30.0963 159 30.3937 159 30.7195C159 31.0452 158.913 31.3567 158.756 31.6258C158.599 31.9091 158.369 32.1215 158.084 32.2773C157.797 32.433 157.482 32.518 157.124 32.518C156.781 32.518 156.452 32.4472 156.165 32.2773ZM157.926 32.079C158.169 31.9515 158.342 31.7533 158.485 31.5267C158.613 31.2859 158.685 31.0169 158.685 30.7195C158.685 30.422 158.613 30.153 158.485 29.9123C158.355 29.6715 158.169 29.4874 157.926 29.3599C157.683 29.2324 157.424 29.1616 157.124 29.1616C156.824 29.1616 156.566 29.2324 156.322 29.3599C156.08 29.4874 155.906 29.6856 155.764 29.9123C155.635 30.153 155.563 30.422 155.563 30.7195C155.563 31.0169 155.635 31.2859 155.764 31.5267C155.893 31.7674 156.08 31.9515 156.322 32.079C156.566 32.2065 156.824 32.2773 157.124 32.2773C157.424 32.2773 157.697 32.2065 157.926 32.079ZM156.351 31.5833V31.4559L156.38 31.4418H156.466C156.494 31.4418 156.523 31.4275 156.537 31.4134C156.566 31.3851 156.566 31.371 156.566 31.3426V30.0255C156.566 29.9972 156.551 29.969 156.537 29.9547C156.508 29.9264 156.494 29.9264 156.466 29.9264H156.38L156.351 29.9123V29.7848L156.38 29.7707H157.124C157.339 29.7707 157.496 29.8131 157.625 29.9123C157.755 30.0114 157.811 30.1389 157.811 30.3088C157.811 30.4363 157.769 30.5636 157.668 30.6487C157.569 30.7478 157.453 30.8045 157.31 30.8186L157.482 30.8753L157.811 31.3992C157.84 31.4418 157.869 31.4559 157.912 31.4559H157.997L158.012 31.4701V31.5974L157.997 31.6117H157.554L157.525 31.5974L157.066 30.8327H156.953V31.3426C156.953 31.371 156.967 31.3992 156.981 31.4134C157.01 31.4418 157.025 31.4418 157.052 31.4418H157.139L157.168 31.4559V31.5833L157.139 31.5974H156.38L156.351 31.5833ZM157.081 30.6487C157.196 30.6487 157.296 30.6203 157.354 30.5495C157.41 30.4928 157.453 30.3937 157.453 30.2805C157.453 30.1671 157.424 30.0822 157.368 30.0114C157.31 29.9406 157.224 29.9123 157.124 29.9123H157.066C157.038 29.9123 157.01 29.9264 156.996 29.9406C156.967 29.9688 156.967 29.9831 156.967 30.0114V30.6487H157.081Z" fill="#CACBD3"/>
</g>
<defs>
<clipPath id="clip0_11_457">
<rect width="159" height="40" fill="white"/>
</clipPath>
</defs>
</svg>
