<svg width="210" height="40" viewBox="0 0 210 40" fill="none" xmlns="http://www.w3.org/2000/svg">
<g clip-path="url(#clip0_11_440)">
<path d="M207.304 30.6244V30.0464H207.676C207.885 30.0464 208.164 30.0627 208.164 30.3087C208.164 30.5756 208.001 30.6244 207.769 30.6244H207.304ZM207.304 31.0306H207.56L208.117 32.0402H208.745L208.117 30.9888C208.443 30.9656 208.722 30.8078 208.722 30.3644C208.722 29.8143 208.35 29.6379 207.699 29.6379H206.769V32.0402H207.304V31.0306ZM210 30.8426C210 29.4314 208.908 28.6121 207.676 28.6121C206.444 28.6121 205.352 29.4314 205.352 30.8426C205.352 32.2537 206.444 33.0754 207.676 33.0754C208.908 33.0754 210 32.2537 210 30.8426ZM209.349 30.8426C209.349 31.8707 208.582 32.5601 207.676 32.5601V32.5531C206.769 32.5601 206.026 31.8707 206.026 30.8426C206.026 29.8143 206.769 29.1273 207.676 29.1273C208.582 29.1273 209.349 29.8143 209.349 30.8426Z" fill="#CACBD3"/>
<path d="M124.807 6.95937L124.809 32.2862H131.972V6.95937H124.807ZM68.4595 6.92456V32.2862H75.6856V13.0288L81.2847 13.0311C83.1395 13.0311 84.4597 13.493 85.3545 14.4446C86.4864 15.6492 86.949 17.5942 86.949 21.15V32.2862H93.9496V18.2743C93.9496 8.27305 87.5672 6.92456 81.3219 6.92456H68.4595ZM136.34 6.96169V32.2862H147.956C154.146 32.2862 156.165 31.258 158.353 28.9532C159.896 27.3355 160.893 23.7843 160.893 19.9013C160.893 16.3432 160.049 13.1657 158.576 11.1882C155.921 7.65104 152.098 6.96169 146.392 6.96169H136.34ZM143.445 12.4741H146.524C150.992 12.4741 153.881 14.4794 153.881 19.6762C153.881 24.8775 150.992 26.8806 146.524 26.8806H143.445V12.4741ZM114.48 6.96169L108.502 27.0314L102.773 6.96169H95.0421L103.221 32.2862H113.545L121.79 6.96169H114.48ZM164.226 32.2862H171.389V6.96169H164.226V32.2862ZM184.305 6.96866L174.304 32.2769H181.367L182.95 27.8043H194.776L196.287 32.2769H203.957L193.87 6.96866H184.305ZM188.956 11.5875L193.289 23.4431H184.48L188.956 11.5875Z" fill="#CACBD3"/>
<path d="M22.5863 11.9362V8.32225C22.9369 8.29744 23.2916 8.27815 23.6533 8.26711C33.5496 7.95699 40.0409 16.7589 40.0409 16.7589C40.0409 16.7589 33.0293 26.4843 25.5111 26.4843C24.429 26.4843 23.4587 26.3092 22.5863 26.017V15.0608C26.4386 15.5253 27.2129 17.2248 29.529 21.0799L34.6801 16.7424C34.6801 16.7424 30.9203 11.8177 24.5822 11.8177C23.8921 11.8177 23.2323 11.8659 22.5863 11.9362ZM22.5863 0V5.39748C22.9411 5.36853 23.2972 5.34649 23.6533 5.33408C37.4157 4.87096 46.3804 16.6032 46.3804 16.6032C46.3804 16.6032 36.0824 29.1086 25.3537 29.1086C24.371 29.1086 23.4504 29.0176 22.5863 28.8646V32.2015C23.3248 32.2952 24.0922 32.3504 24.8914 32.3504C34.8747 32.3504 42.0947 27.2589 49.0871 21.2329C50.2451 22.1605 54.9904 24.4141 55.9676 25.4023C49.3189 30.9597 33.8271 35.4392 25.0446 35.4392C24.1985 35.4392 23.3841 35.3882 22.5863 35.311V40H60.5321V0H22.5863ZM22.5863 26.017V28.8646C13.3511 27.2217 10.788 17.6355 10.788 17.6355C10.788 17.6355 15.2227 12.7301 22.5863 11.9362V15.0608C22.5795 15.0608 22.5767 15.0594 22.5712 15.0594C18.7079 14.5963 15.6879 18.2006 15.6879 18.2006C15.6879 18.2006 17.3801 24.2707 22.5863 26.017ZM6.18489 17.2206C6.18489 17.2206 11.6576 9.15613 22.5863 8.32225V5.39748C10.4816 6.36644 0 16.6032 0 16.6032C0 16.6032 5.93644 33.7425 22.5863 35.311V32.2015C10.3684 30.6661 6.18489 17.2206 6.18489 17.2206Z" fill="#CACBD3"/>
</g>
<defs>
<clipPath id="clip0_11_440">
<rect width="210" height="40" fill="white"/>
</clipPath>
</defs>
</svg>
