<svg width="83" height="33" viewBox="0 0 83 33" fill="none" xmlns="http://www.w3.org/2000/svg">
<path d="M75.5327 3.25573C71.9957 3.88633 70.1094 6.56683 70.1094 11.2181C70.1094 15.9483 72.6245 19.1017 76.3187 19.1017C78.1264 19.1017 79.6984 18.4711 82.9995 16.8155C82.9995 20.6785 82.9995 20.6785 82.9995 20.6785C78.991 22.5705 76.633 23.0436 73.4891 23.0436C69.9522 23.0436 67.437 22.1764 65.4721 20.0478C63.4285 17.998 62.3281 15.3176 62.3281 12.243C62.3281 5.54192 67.3584 0.890625 74.6681 0.890625C79.4626 0.890625 82.8423 3.17683 82.8423 6.40913C82.8423 8.53773 81.2704 10.0356 78.991 10.0356C77.812 10.0356 76.8688 9.64142 75.5327 8.93192" fill="#C9CBD4"/>
<path d="M57.8486 12.243C61.0712 8.22232 62.2502 6.56683 62.2502 4.59593C62.2502 2.62503 60.6782 0.890625 58.4774 0.890625C57.2198 0.890625 56.0409 1.60013 55.4907 2.23083C55.4907 10.5086 55.4907 10.5086 55.4907 10.5086C50.2246 17.6039 50.2246 17.6039 50.2246 17.6039C50.2246 1.52133 50.2246 1.52133 50.2246 1.52133C45.1943 1.52133 45.1943 1.52133 45.1943 1.52133C36.8628 15.3176 36.8628 15.3176 36.8628 15.3176C36.8628 1.52133 36.8628 1.52133 36.8628 1.52133C34.0333 1.52133 34.0333 1.52133 34.0333 1.52133C26.4092 3.25573 26.4092 3.25573 26.4092 3.25573C26.4092 5.22663 26.4092 5.22663 26.4092 5.22663C30.5749 5.62073 30.5749 5.62073 30.5749 5.62073C30.5749 22.7282 30.5749 22.7282 30.5749 22.7282C35.841 22.7282 35.841 22.7282 35.841 22.7282C43.8581 9.48372 43.8581 9.48372 43.8581 9.48372C43.8581 22.7282 43.8581 22.7282 43.8581 22.7282C49.753 22.7282 49.753 22.7282 49.753 22.7282" fill="#C9CBD4"/>
<path d="M10.4536 20.0465C11.0824 20.0465 11.2396 20.0465 11.6326 20.0465C15.8769 20.0465 18.2349 17.4449 18.2349 12.2417C18.2349 7.90567 16.3485 5.54058 12.8116 5.54058C12.34 5.54058 11.6326 5.61938 10.4536 5.85598V20.0465ZM10.4536 29.3491C13.912 30.1375 13.912 30.1375 13.912 30.1375C13.912 32.1084 13.912 32.1084 13.912 32.1084C0.314393 32.1084 0.314394 32.1084 0.314394 32.1084C0.314394 30.1375 0.314394 30.1375 0.314394 30.1375C3.45834 29.3491 3.45833 29.3491 3.45833 29.3491C3.45833 5.54058 3.45833 5.54058 3.45833 5.54058C0 5.54058 0 5.54058 0 5.54058C0 3.56967 0 3.56968 0 3.56968C8.25284 1.04688 8.25284 1.04688 8.25284 1.04688C10.4536 1.04688 10.4536 1.04688 10.4536 1.04688C10.4536 3.88497 10.4536 3.88498 10.4536 3.88498C14.305 1.51998 15.6411 1.12577 17.6847 1.12577C22.2434 1.12577 25.7017 5.38288 25.7017 11.2957C25.7017 18.0756 21.0644 22.7269 13.9906 22.7269C13.2046 22.7269 11.8684 22.6481 10.4536 22.5692" fill="#C9CBD4"/>
</svg>
