<svg width="66" height="28" viewBox="0 0 66 28" fill="none" xmlns="http://www.w3.org/2000/svg">
<path fill-rule="evenodd" clip-rule="evenodd" d="M58.5664 5.7666C62.8495 5.7666 65.0999 9.44621 65.0999 14.1144C65.0999 14.4323 65.0869 14.8686 65.0765 15.2184C65.0695 15.4527 65.0636 15.6482 65.0636 15.7436H56.2252C56.4249 17.8855 57.9131 18.5079 59.7279 18.5079C61.2627 18.5356 62.7816 18.1903 64.1562 17.5011V21.1624C62.6174 21.9914 60.891 22.4015 59.1472 22.3523C54.737 22.3523 51.6699 19.5697 51.6699 14.0777C51.6699 9.4279 54.2833 5.7666 58.5664 5.7666ZM58.6392 9.46454C57.4958 9.46454 56.2617 10.3249 56.2617 12.3936H60.9259C60.9259 10.3249 59.7826 9.46454 58.6392 9.46454Z" fill="#C9CBD4"/>
<path fill-rule="evenodd" clip-rule="evenodd" d="M41.1421 7.19455C42.0934 6.27344 43.3625 5.76141 44.6811 5.76664C47.839 5.76664 50.8154 8.64076 50.8335 13.9313C50.8335 19.7162 47.8753 22.3523 44.6448 22.3523C43.4795 22.3544 42.35 21.9465 41.4507 21.199V26.3614L36.9316 27.3317V6.05955H40.9062L41.1421 7.19455ZM41.4326 17.4462C41.9764 18.0402 42.756 18.3561 43.556 18.3066C45.262 18.3066 46.3509 16.476 46.3509 14.0595C46.3509 11.6431 45.2075 9.8124 43.556 9.8124C42.7502 9.77214 41.9695 10.1019 41.4326 10.7094V17.4462Z" fill="#C9CBD4"/>
<path d="M30.707 4.68646L35.2442 3.69791V0L30.707 0.970244V4.68646V4.68646Z" fill="#C9CBD4"/>
<path d="M30.707 6.07812H35.2442V22.0414H30.707V6.07812Z" fill="#C9CBD4"/>
<path d="M25.8447 7.43267L25.5543 6.07799H21.6523V21.968H26.1714V11.2221C27.0147 10.228 28.3727 9.85118 29.6015 10.2702V6.07799C28.1894 5.53409 26.5949 6.10904 25.8447 7.43267Z" fill="#C9CBD4"/>
<path d="M16.8058 2.12305L12.3776 3.05668V17.7019C12.3573 18.9557 12.8459 20.1634 13.7301 21.0449C14.6143 21.9265 15.8172 22.4052 17.0599 22.37C18.1448 22.4196 19.2262 22.2127 20.2178 21.7659V18.1046C19.637 18.3426 16.7877 19.1847 16.7877 16.4936V9.95822H20.2178V6.07725H16.7877L16.8058 2.12305Z" fill="#C9CBD4"/>
<path d="M4.57347 10.7097C4.57347 9.99578 5.15422 9.72119 6.1161 9.72119C7.68741 9.7848 9.22233 10.2173 10.5988 10.9843V6.60908C9.17208 6.04056 7.65009 5.75465 6.1161 5.76698C2.45007 5.76698 0 7.68917 0 10.9843C0 16.0186 6.87835 15.2131 6.87835 17.3916C6.87835 18.2154 6.1524 18.49 5.06348 18.49C3.35102 18.3643 1.68861 17.8513 0.199635 16.9889V21.3275C1.75777 22.0099 3.43741 22.365 5.13607 22.371C8.89285 22.371 11.4881 20.5403 11.4881 17.2268C11.47 11.7898 4.57347 12.815 4.57347 10.7097Z" fill="#C9CBD4"/>
</svg>
