<svg width="40" height="40" viewBox="0 0 40 40" fill="none" xmlns="http://www.w3.org/2000/svg">
<path d="M20.0024 39.9999L25.5984 8.39322C30.9323 8.39322 32.6147 8.98062 32.8577 11.3782C32.8577 11.3782 36.4358 10.0384 38.2405 7.31711C31.1981 4.03983 24.1221 3.89203 24.1221 3.89203L19.9931 8.9426L20.0024 8.94197L15.8735 3.89124C15.8735 3.89124 8.79731 4.03919 1.75586 7.31648C3.55897 10.0377 7.13853 11.3776 7.13853 11.3776C7.38287 8.97983 9.06326 8.39243 14.3614 8.38863L20.0024 39.9999Z" fill="#CACBD3"/>
<path d="M20 2.43325C25.6928 2.38953 32.2088 3.31768 38.8793 6.23742C39.7708 4.62586 40 3.91363 40 3.91363C32.7082 1.01639 25.8796 0.0248711 19.9992 0C14.1192 0.0248711 7.29084 1.01655 0 3.91363C0 3.91363 0.325257 4.79093 1.11994 6.23742C7.78913 3.31768 14.3063 2.38953 19.9992 2.43325H20Z" fill="#CACBD3"/>
</svg>
