<svg width="188" height="40" viewBox="0 0 188 40" fill="none" xmlns="http://www.w3.org/2000/svg">
<g clip-path="url(#clip0_11_379)">
<path fill-rule="evenodd" clip-rule="evenodd" d="M70.7 29.1333V29.3792H61.5902V25.8296L61.6553 25.8192H61.5872C61.5902 25.8162 61.5872 16.4977 61.5872 16.4977C61.568 15.954 61.7678 13.5259 59.0085 13.5525C59.01 13.5599 56.1752 13.5999 56.2403 17.0162V17.0192L56.2315 26.2429C56.3129 29.0814 58.0063 29.1407 58.0123 29.1407V29.3777H48.8017L43.5555 29.3762C43.3527 29.3999 36.9489 29.6088 36.6913 23.6399V20.4133C36.6913 20.4133 34.154 20.9777 33.3606 21.5866C33.3606 21.5866 31.3296 22.8755 32.6693 25.0874C32.6693 25.0874 33.6655 26.8355 36.8852 26.1896L35.3146 29.3851H32.2119C32.2119 29.3851 24.9702 29.5333 24.1219 24.2088C24.1219 24.1718 23.4706 20.0311 28.4149 18.354C28.4149 18.354 30.1069 17.7585 33.3236 17.1896C33.3591 17.1896 36.0725 16.8014 36.3257 15.3288C36.389 15.0309 36.3575 14.7205 36.2354 14.4414C36.2798 14.557 35.0023 11.1999 27.1906 14.594C27.2232 14.6311 28.7983 9.68735 28.7983 9.68735C28.7983 9.68735 36.1554 7.52291 41.2892 10.677C41.2551 10.7111 43.9715 12.1555 43.9345 16.6874L44.0159 22.954C44.0055 23.0429 44.01 26.1644 47.0801 26.3392C47.0801 26.3688 48.1697 26.3599 48.7944 26.357V12.677C48.7944 12.5999 48.9616 9.75254 47.0624 9.62513V9.36291L56.2433 9.00587L56.2403 11.3318C56.7392 10.8385 58.7658 9.03254 61.7619 8.97624C61.7619 8.97624 68.9074 8.72587 68.8955 15.7318C68.8985 15.7318 68.9074 25.8148 68.9074 25.8148C68.8511 29.0859 70.7015 29.1333 70.7015 29.1333H70.7ZM0.0268555 0.407352V0.106612H9.98938L17.1393 20.9999L22.427 4.23698C22.427 4.23698 23.5076 1.41624 20.6151 0.299204V0.0592041H28.5955L18.5115 29.6029L14.3149 27.9836C14.3149 27.9836 10.9161 26.9792 9.10711 21.877L2.54635 3.74809C2.54635 3.74809 1.72034 0.819204 0.0268555 0.407352ZM177.594 25.8192C177.546 29.3229 179.408 29.1377 179.411 29.1377V29.3851L170.038 29.3792V29.3762L170.035 29.3792V16.7762L170.032 16.5155C170.032 16.634 170.032 13.2962 167.109 13.2607C167.073 13.2962 163.677 12.9348 163.677 19.2859C163.643 19.3199 163.643 26.714 169.384 25.7644C169.384 25.794 167.371 29.3659 167.371 29.3659C167.371 29.3659 162.716 30.9718 158.857 26.8459C158.857 26.8459 155.922 24.2918 155.922 19.2859C155.956 19.3199 155.824 14.5718 158.857 11.5614C158.826 11.6592 163.539 6.33031 170.032 10.4414V3.77772C170.032 3.70513 170.196 0.85476 168.297 0.727352V0.469574L177.586 0.109574L177.594 25.8192ZM149.699 11.6488C151.734 7.81476 155.641 9.00291 155.641 9.00291V14.0162C149.445 12.9881 149.704 17.6562 149.699 17.6281H149.696L149.693 25.8103C149.653 29.2799 151.431 29.1436 151.518 29.1392V29.3792H142.251V29.3762H136.889C136.695 29.3999 130.287 29.6088 130.036 23.6399V20.4133C130.036 20.4133 127.489 20.9777 126.697 21.5866C126.697 21.5866 124.672 22.8755 126.012 25.0874C126.012 25.0874 127.004 26.8355 130.225 26.1896L128.654 29.3881H125.546C125.546 29.3881 118.31 29.5333 117.462 24.2074C117.462 24.1703 116.81 20.0281 121.755 18.357C121.755 18.357 123.445 17.7585 126.66 17.1896C126.697 17.1896 129.409 16.8014 129.662 15.3303C129.729 15.0321 129.697 14.7206 129.574 14.4414C129.612 14.5599 128.341 11.1999 120.526 14.594C120.57 14.6311 122.14 9.68735 122.14 9.68735C122.14 9.68735 129.5 7.52291 134.633 10.677C134.595 10.7155 137.308 12.1585 137.276 16.6829L137.356 22.954C137.342 23.0474 137.345 26.1644 140.42 26.3362C140.42 26.3659 141.649 26.3599 142.247 26.357V24.7422L142.25 12.677C142.25 12.5999 142.412 9.74809 140.516 9.62217V9.36735L149.699 9.00735V11.6488Z" fill="#CACBD3"/>
<path fill-rule="evenodd" clip-rule="evenodd" d="M81.3049 20.0814C84.113 20.0814 83.7873 16.1747 83.7873 16.1155C83.7281 12.7614 81.3108 12.8606 81.3108 12.8606C78.6477 12.8606 78.7543 16.2088 78.7232 16.1747C78.4316 19.8888 81.105 20.1273 81.3049 20.0814ZM102.278 8.97767V22.0354C102.278 22.0354 102.213 24.8651 104.792 24.8399C104.78 24.794 107.518 25.2532 107.619 21.3584C107.623 21.3629 107.623 21.3688 107.628 21.3688L107.631 18.9954V12.6769C107.631 12.5999 107.795 9.75249 105.896 9.62508V9.36286L115.077 9.00582V25.8147C115.072 25.8858 114.908 29.0473 116.898 29.1392V29.3762H107.619L107.622 26.991C107.244 27.3777 105.175 29.3436 102.051 29.4029C102.051 29.4029 94.7772 29.6577 94.792 22.6443C94.7654 22.591 94.7802 15.1762 94.7876 12.6443H89.192C89.4037 12.8192 89.679 13.188 89.6805 13.188C92.8217 17.2132 89.7693 20.5614 89.7412 20.5925C87.7265 23.4147 81.222 24.2073 81.222 24.2073L80.8178 24.2532C78.6151 24.3303 79.3153 25.4488 79.3227 25.4547C79.641 26.1999 81.2279 26.0829 81.2279 26.0829H84.9524C92.4931 26.0577 93.2969 31.0014 93.328 31.0014C94.567 37.9362 87.5918 40.0043 80.6269 39.8221C73.7168 39.8666 71.1558 36.8562 71.1825 36.8799C69.4283 34.8458 70.355 32.0058 73.4621 31.1451C75.7596 30.511 78.4745 31.1451 78.4745 31.1451C76.4109 31.434 76.7766 33.5362 76.781 33.551C77.4723 36.0354 81.0029 36.0606 81.216 36.0636C85.7251 35.831 85.8539 33.634 85.8539 32.5599C85.8539 31.1421 84.677 30.2903 84.677 30.2903C83.0427 29.0888 79.9504 29.468 77.798 29.3747C74.7811 29.2029 73.998 26.3658 73.8544 25.4977C73.7138 24.6206 73.8766 24.268 74.3799 23.9451C75.2903 23.4088 77.3598 23.1732 77.1244 23.1777L77.1689 23.1688C77.1304 23.1599 77.1067 23.1599 77.1037 23.1599C74.5087 22.3347 72.9677 20.148 72.9396 20.148C69.6415 15.428 73.4873 11.7066 73.4873 11.7066C75.6945 9.57619 78.4982 9.09915 81.0029 8.97767H102.278ZM180.6 3.81175C180.6 5.5599 182.034 6.98508 183.799 6.98508C185.56 6.98508 186.992 5.5599 186.992 3.81175C186.992 2.0636 185.562 0.636932 183.799 0.636932C182.034 0.636932 180.6 2.06212 180.6 3.81175ZM180.088 3.81175C180.088 1.7836 181.749 0.128784 183.799 0.128784C185.843 0.128784 187.509 1.7836 187.509 3.81175C187.509 5.84138 185.843 7.49471 183.799 7.49471C182.819 7.49825 181.878 7.11236 181.182 6.4218C180.486 5.73123 180.092 4.79247 180.088 3.81175Z" fill="#CACBD3"/>
<path fill-rule="evenodd" clip-rule="evenodd" d="M182.995 4.04442V6.00294H182.384V1.66516H183.947C184.683 1.66516 185.436 1.89479 185.436 2.75257C185.444 2.99516 185.367 3.23289 185.218 3.42411C185.068 3.61533 184.856 3.74786 184.619 3.79849V3.81183C185.142 3.93479 185.211 4.21479 185.279 4.69923C185.346 5.13183 185.396 5.59405 185.555 6.00294H184.903C184.85 5.74664 184.779 5.46368 184.748 5.20294C184.7 4.81479 184.7 4.46072 184.501 4.23998C184.326 4.04442 184.082 4.0622 183.84 4.04442H182.995ZM182.98 3.52886H183.981C184.653 3.49775 184.804 3.19553 184.804 2.85479C184.804 2.51109 184.653 2.20886 183.981 2.18072H182.979L182.98 3.52886Z" fill="#CACBD3"/>
</g>
<defs>
<clipPath id="clip0_11_379">
<rect width="188" height="40" fill="white"/>
</clipPath>
</defs>
</svg>
