<?xml version="1.0" encoding="UTF-8"?>
<svg id="Layer_1" data-name="Layer 1" xmlns="http://www.w3.org/2000/svg" viewBox="0 0 110 110">
  <defs>
    <style>
      .cls-1 {
        fill-rule: evenodd;
      }

      .cls-1, .cls-2 {
        fill: #fff;
      }

      .cls-3 {
        fill: #0090bd;
      }

      .cls-4 {
        fill: #ffb0c5;
      }

      .cls-5 {
        fill: #959dac;
      }

      .cls-6 {
        fill: #3d4452;
      }

      .cls-7 {
        fill: #eaeaef;
      }
    </style>
  </defs>
  <rect class="cls-4" width="110" height="110"/>
  <g>
    <g>
      <path class="cls-1" d="M10.53,110V19.78c0-.79.59-1.43,1.31-1.43h69.22c.72,0,1.31.64,1.31,1.43v90.22H10.53Z"/>
      <g>
        <rect class="cls-5" x="16.17" y="67.63" width="55.2" height="3.29" rx=".4" ry=".4"/>
        <rect class="cls-5" x="16.17" y="77.28" width="46.09" height="3.36" rx=".4" ry=".4"/>
        <rect class="cls-6" x="16.17" y="92.82" width="2.68" height="11.79"/>
        <rect class="cls-6" x="30.11" y="92.82" width="2.14" height="11.79"/>
        <rect class="cls-6" x="61.74" y="92.82" width="2.13" height="11.79"/>
        <rect class="cls-6" x="67.62" y="92.82" width="2.14" height="11.79"/>
        <rect class="cls-6" x="22.6" y="92.82" width="4.29" height="11.79"/>
        <rect class="cls-6" x="72.98" y="92.82" width="3.75" height="11.79"/>
        <rect class="cls-6" x="35.47" y="92.82" width="3.75" height="11.79"/>
        <rect class="cls-6" x="51.54" y="92.82" width="6.97" height="11.79"/>
        <rect class="cls-6" x="43.5" y="92.82" width="4.29" height="11.79"/>
      </g>
    </g>
    <path class="cls-1" d="M10.53,34.99v-15.21c0-.79.59-1.43,1.31-1.43h69.22c.72,0,1.31.64,1.31,1.43v15.21H10.53Z"/>
    <rect class="cls-7" x="16.17" y="25.8" width="60.06" height="30.08" rx=".57" ry=".57"/>
    <path class="cls-3" d="M16.74,25.8h29.44v30.08h-29.44c-.32,0-.57-.26-.57-.57v-28.93c0-.32.26-.57.57-.57Z"/>
    <path class="cls-5" d="M69.77,47.26h-3.22v-10.88l2.38,2.97c.21.26.52.4.84.4.23,0,.47-.08.67-.23.46-.37.54-1.04.17-1.51l-4.29-5.36s-.02-.02-.03-.03c-.04-.05-.08-.09-.13-.13,0,0-.01-.01-.02-.02-.18-.14-.41-.23-.66-.23s-.48.09-.66.23c0,0-.01.01-.02.02-.05.04-.09.08-.13.13,0,.01-.02.02-.03.03l-3.45,4.31-3.45-4.31s-.02-.02-.03-.03c-.04-.05-.08-.09-.13-.13,0,0-.01-.01-.02-.02-.18-.14-.41-.23-.66-.23s-.48.09-.66.23c0,0-.01.01-.02.02-.05.04-.09.08-.13.13,0,.01-.02.02-.03.03l-4.29,5.36c-.37.46-.3,1.14.17,1.51.46.37,1.14.3,1.51-.17l2.38-2.97v10.88h-3.22c-.59,0-1.07.48-1.07,1.07s.48,1.07,1.07,1.07h17.15c.59,0,1.07-.48,1.07-1.07s-.48-1.07-1.07-1.07ZM57.97,36.39l2.38,2.97s0,0,0,0c.05.06.1.11.16.16,0,0,0,0,0,0,.02.01.04.02.06.04.04.03.09.06.14.08.02.01.05.02.07.03.05.02.09.04.14.05.03,0,.05,0,.08.01.05,0,.09.01.14.02.01,0,.03,0,.04,0,.01,0,.02,0,.03,0,.1,0,.21-.02.31-.05.01,0,.02-.01.03-.01.1-.04.2-.09.28-.16,0,0,0,0,.01,0h0s.05-.06.08-.08c.03-.03.06-.05.08-.08h0s2.38-2.98,2.38-2.98v10.88h-6.43v-10.88Z"/>
    <path class="cls-2" d="M37.82,35.91l-2.15-.81c-.1-.04-.22-.04-.32,0l-6.87,2.91v3.28l-1.66-.64v-3.28s7.04-2.99,7.04-2.99l-2.28-.87c-.26-.1-.55-.1-.81,0l-6.23,2.34c-.5.19-.84.67-.84,1.21v7.18c0,.52.31.99.79,1.19l6.44,2.75c.18.08.38.08.56.01,1.1-.43,4.95-2.13,6.5-2.81.4-.18.65-.57.65-1.01v-7.27c0-.54-.33-1.02-.83-1.21Z"/>
  </g>
</svg>