<?xml version="1.0" encoding="UTF-8"?>
<svg id="Layer_1" data-name="Layer 1" xmlns="http://www.w3.org/2000/svg" viewBox="0 0 110 110">
  <defs>
    <style>
      .cls-1 {
        fill: #8fa5ff;
      }

      .cls-2 {
        fill: #fff;
      }

      .cls-3 {
        fill: #4e4eda;
        fill-rule: evenodd;
      }

      .cls-4 {
        fill: #939baa;
      }

      .cls-5 {
        fill: #e4e6ef;
      }
    </style>
  </defs>
  <rect class="cls-1" width="110" height="110"/>
  <g>
    <path class="cls-2" d="M96.86,35.22H24.18c-2.98,0-5.39,2.41-5.39,5.39v30.6c0,2.98,2.41,5.39,5.39,5.39h43.12l6.39,9.08c1.08,1.08,2.84,1.08,3.93,0l6.32-9.01,9.4-.07h3.52c2.98,0,5.39-2.41,5.39-5.39v-30.6c0-2.98-2.41-5.39-5.39-5.39Z"/>
    <g>
      <path class="cls-3" d="M50.98,41.56h-24.87c-.47,0-.85.38-.85.85v22.06c0,.47.38.85.85.85h24.87c.47,0,.85-.38.85-.85v-22.06c0-.47-.38-.85-.85-.85Z"/>
      <path class="cls-2" d="M45.78,58.55h-.03c-.64-.47-1.69-4.18-2.34-8.26-.42-1.7-1.79-2.96-3.51-3.37-.09-.48-.51-.84-1.01-.84-.47,0-.86.32-.99.75-1.97.31-3.58,1.74-3.97,3.68-.43,3.93-1.29,7.57-1.91,8.04h-.03c-.36,0-.65.28-.65.62s.29.62.65.62h4.95c.28.8,1.05,1.37,1.94,1.37s1.66-.57,1.94-1.37h4.95c.36,0,.65-.28.65-.62s-.29-.62-.65-.62Z"/>
    </g>
    <g>
      <rect class="cls-4" x="56.64" y="41.82" width="39.26" height="7.18" rx="3.59" ry="3.59"/>
      <rect class="cls-5" x="56.64" y="52.18" width="39.13" height="7.18" rx="3.59" ry="3.59"/>
      <rect class="cls-5" x="56.64" y="62.54" width="32.78" height="7.18" rx="3.59" ry="3.59"/>
    </g>
  </g>
</svg>