<?xml version="1.0" encoding="UTF-8"?>
<svg id="Layer_1" data-name="Layer 1" xmlns="http://www.w3.org/2000/svg" viewBox="0 0 110 110">
  <defs>
    <style>
      .cls-1 {
        fill-rule: evenodd;
      }

      .cls-1, .cls-2 {
        fill: #fff;
      }

      .cls-3 {
        fill: #7eb7c1;
      }

      .cls-4 {
        fill: #3e4451;
      }

      .cls-5 {
        fill: #a2a8b6;
      }

      .cls-6 {
        fill: #bec0c3;
      }

      .cls-7 {
        fill: #009645;
      }

      .cls-8 {
        fill: #303541;
      }
    </style>
  </defs>
  <rect class="cls-3" width="110" height="110"/>
  <g>
    <path class="cls-8" d="M42.44,0l-.47,13.81L27.42,0h-9.78l24.48,21,2.67,6.51,5.47-2.24-2.74-6.7,1.24-18.57h-6.3Z"/>
    <g>
      <path class="cls-2" d="M62.94,44.35l-.66,17.5-1.21.49-12.59-12.17,4.31-1.73,5.81,5.97.04-8.32,4.31-1.73Z"/>
      <path class="cls-1" d="M68.65,22.23l-39.48,16.14c-1.44.59-2.13,2.23-1.54,3.67l26.66,65.23c.59,1.44,2.23,2.13,3.67,1.54l39.48-16.14c1.44-.59,2.13-2.23,1.54-3.67l-26.66-65.23c-.59-1.44-2.23-2.13-3.67-1.54ZM57.78,33.67c.35.87-.06,1.86-.93,2.21l-10.03,4.1c-.87.35-1.86-.06-2.21-.93h0c-.35-.87.06-1.86.93-2.21l10.03-4.1c.87-.35,1.86.06,2.21.93h0Z"/>
      <rect class="cls-7" x="45.61" y="40.99" width="25.92" height="25.92" rx="12.96" ry="12.96" transform="translate(86.45 -20.64) rotate(67.85)"/>
      <g>
        <rect class="cls-4" x="50.15" y="69.96" width="32.19" height="3.17" rx="1.58" ry="1.58" transform="translate(-22.14 30.38) rotate(-22.23)"/>
        <rect class="cls-5" x="53.56" y="79.29" width="28.04" height="2" rx="1" ry="1" transform="translate(-25.35 31.53) rotate(-22.23)"/>
        <rect class="cls-5" x="55.7" y="84.33" width="30.93" height="2" rx="1" ry="1" transform="translate(-26.99 33.27) rotate(-22.23)"/>
        <rect class="cls-5" x="58.33" y="91.65" width="21.76" height="2" rx="1" ry="1" transform="translate(-29.91 33.07) rotate(-22.23)"/>
      </g>
      <g>
        <rect class="cls-6" x="45.09" y="23.86" width="7.63" height="11.93" rx=".45" ry=".45" transform="translate(-7.64 20.69) rotate(-22.2)"/>
        <circle class="cls-3" cx="47.97" cy="27.47" r="1.55"/>
      </g>
      <g>
        <path class="cls-2" d="M61.4,54.63l-4.02,1.64c-1.4.57-2.08,2.15-1.51,3.53l.44,1.08c.09.22.34.32.57.23l8.28-3.38c.22-.09.33-.34.24-.56l-.44-1.08c-.56-1.38-2.15-2.03-3.55-1.46Z"/>
        <path class="cls-2" d="M54.67,54.33c.67.65.75,1.25.76,1.39,0,.01.02.02.03.01.44-.21.74-1.01.4-1.71-.33-.67-.4-1.09-.39-1.34.48.69,1.85,2.29,3.64,1.56,2.31-.95,1.43-4.01,1.43-4.01,0-.03-.98-3.65-4.05-2.39-.26.11-.48.23-.67.37-.38-.36-1.32-1.05-2.18-.24-1.34,1.27-.14,2.49.27,2.84.62.55-1.36,1.44.76,3.51Z"/>
      </g>
    </g>
  </g>
</svg>