<?xml version="1.0" encoding="UTF-8"?>
<svg id="Layer_1" xmlns="http://www.w3.org/2000/svg" version="1.1" viewBox="0 0 110 110">
  <!-- Generator: Adobe Illustrator 29.8.3, SVG Export Plug-In . SVG Version: 2.1.1 Build 3)  -->
  <defs>
    <style>
      .st0, .st1 {
        fill: #fff;
      }

      .st0, .st2 {
        fill-rule: evenodd;
      }

      .st3 {
        fill: #949cab;
      }

      .st4 {
        fill: #4ec176;
      }

      .st5 {
        fill: #e5e7f0;
      }

      .st6 {
        fill: #3d4452;
      }

      .st2 {
        fill: #52449e;
      }
    </style>
  </defs>
  <rect class="st4" width="110" height="110"/>
  <g>
    <path class="st0" d="M29.3,109.8V19.4c0-.8.6-1.4,1.3-1.4h69.4c.7,0,1.3.6,1.3,1.4v90.5H29.3Z"/>
    <rect class="st6" x="56.1" y="91.8" width="18.4" height="18"/>
  </g>
  <path class="st0" d="M29.3,34.6v-15.3c0-.8.6-1.4,1.3-1.4h69.4c.7,0,1.3.6,1.3,1.4v15.3H29.3Z"/>
  <g>
    <rect class="st5" x="88.1" y="25.4" width="7.5" height="9.9"/>
    <rect class="st3" x="88.1" y="30.8" width="7.5" height="58"/>
    <g>
      <rect class="st3" x="77.7" y="49.1" width="7.5" height="39.7"/>
      <rect class="st5" x="77.7" y="25.4" width="7.5" height="28.3"/>
    </g>
    <rect class="st5" x="67" y="25.4" width="7.5" height="35.1"/>
    <rect class="st3" x="67" y="38" width="7.5" height="50.8"/>
    <g>
      <rect class="st3" x="56.1" y="61.9" width="7.5" height="26.9"/>
      <rect class="st5" x="56.1" y="26.3" width="7.5" height="40.1"/>
    </g>
    <g>
      <rect class="st3" x="35" y="64.1" width="7.5" height="24.7"/>
      <rect class="st5" x="35" y="26.8" width="7.5" height="37.3"/>
    </g>
    <rect class="st5" x="45.6" y="25.4" width="7.5" height="41.9"/>
    <rect class="st3" x="45.6" y="55.6" width="7.5" height="33.3"/>
  </g>
  <g>
    <path class="st2" d="M62.7,25.3h-26.8c-.5,0-.9.4-.9.9v23.8c0,.5.4.9.9.9h26.8c.5,0,.9-.4.9-.9v-23.8c0-.5-.4-.9-.9-.9Z"/>
    <path class="st1" d="M59,32.5l-11.6,13.6c-.4.4-.9.7-1.4.7,0,0,0,0,0,0-.5,0-1-.2-1.4-.6l-5-4.9c-.8-.8-.8-2,0-2.8.8-.8,2-.8,2.8,0l3.5,3.4,10.2-12c.7-.8,1.9-.9,2.7-.2.8.7.9,1.9.2,2.7Z"/>
  </g>
</svg>